<svg width="811" height="438" viewBox="0 0 811 438" fill="none" xmlns="http://www.w3.org/2000/svg">
<g style="mix-blend-mode:overlay">
<path d="M236.755 633.325C221.278 633.325 208.979 629.021 200.473 620.309C179.564 598.991 184.074 552.972 212.874 494.142C269.039 379.25 400.638 245.909 506.409 196.918C554.682 174.575 591.476 172.73 610.13 191.691C631.038 213.009 626.528 259.028 597.728 317.858C541.563 432.75 409.965 566.091 304.194 615.082C277.956 627.176 255.1 633.325 236.755 633.325ZM506.819 197.943L507.331 199.07C401.97 247.856 270.884 380.685 214.924 495.167C186.636 553.075 181.922 598.069 202.113 618.669C219.946 636.913 255.818 634.863 303.169 612.93C408.427 564.144 539.616 431.315 595.576 316.833C623.864 258.925 628.578 213.932 608.387 193.331C590.554 175.088 554.682 177.137 507.331 199.07L506.819 197.943Z" fill="#E7F0F5" fill-opacity="0.07"/>
<path d="M225.583 636.4C207.442 636.4 193.401 631.173 184.279 620.821C162.961 596.531 170.853 546.413 205.7 483.278C271.602 364.183 414.372 232.277 524.037 189.334C572.208 170.475 608.388 171.09 626.016 191.178C647.334 215.469 639.442 265.587 604.595 328.722C538.694 447.816 395.923 579.722 286.258 622.666C263.095 631.788 242.597 636.4 225.583 636.4ZM584.815 177.957C568.211 177.957 548.02 182.467 524.96 191.486C415.807 234.327 273.549 365.721 207.852 484.406C173.415 546.618 165.523 595.711 186.124 619.284C203.035 638.552 238.292 639.065 285.438 620.514C394.591 577.673 536.849 446.279 602.546 327.594C636.983 265.382 644.874 216.289 624.274 192.716C615.664 182.877 602.238 177.957 584.815 177.957Z" fill="#E7F0F5" fill-opacity="0.07"/>
<path d="M215.437 638.757C194.118 638.757 177.925 632.505 168.188 620.001C146.665 592.431 158.144 538.008 199.755 470.774C275.804 348.092 429.541 218.749 542.486 182.569C590.144 167.298 625.606 170.578 642.21 191.793C663.733 219.364 652.254 273.786 610.642 341.021C534.594 463.805 380.857 593.149 267.912 629.328C248.131 635.58 230.503 638.757 215.437 638.757ZM595.064 175.6C580.203 175.6 562.882 178.675 543.306 185.029C430.873 221.106 277.649 349.835 201.908 472.209C160.809 538.521 149.227 591.919 170.135 618.669C186.124 639.065 220.561 642.037 267.195 627.176C379.627 591.099 532.852 462.37 608.593 339.996C649.692 273.684 661.273 220.286 640.365 193.536C631.141 181.544 615.562 175.6 595.064 175.6Z" fill="#E7F0F5" fill-opacity="0.07"/>
<path d="M205.905 640.602C180.897 640.602 162.551 632.915 152.097 617.849C130.471 586.589 146.05 527.862 194.938 456.938C281.338 331.284 445.837 205.835 561.447 177.342C609.105 165.658 642.62 171.398 658.301 194.151C679.926 225.41 664.348 284.138 615.459 355.062C529.059 480.716 364.561 606.165 248.951 634.658C232.962 638.655 218.614 640.602 205.905 640.602ZM604.595 173.755C592.091 173.755 577.845 175.702 562.062 179.597C446.861 207.987 283.081 332.924 196.886 458.168C148.612 528.374 133.034 585.974 154.044 616.414C169.213 638.347 201.805 643.779 248.439 632.3C363.639 603.91 527.42 478.974 613.615 353.729C661.785 283.625 677.467 225.923 656.353 195.483C646.412 181.032 628.783 173.755 604.595 173.755Z" fill="#E7F0F5" fill-opacity="0.07"/>
<path d="M198.423 641.525C168.393 641.525 147.177 632.198 136.108 613.954C114.688 578.595 134.776 515.563 191.249 441.154C288.308 313.245 463.055 193.023 580.715 173.14L580.92 174.267L580.715 173.14C627.348 165.248 659.736 173.755 674.289 197.84C695.71 233.2 675.622 296.232 619.149 370.64C522.09 498.549 347.445 618.772 229.683 638.655C218.409 640.602 207.955 641.525 198.423 641.525ZM612.077 172.833C602.648 172.833 592.399 173.755 581.227 175.702C463.977 195.483 289.948 315.295 193.196 442.794C138.158 515.255 117.66 578.902 138.158 612.93C152.199 636.093 183.664 644.189 229.273 636.502C346.523 616.722 520.553 496.91 617.304 369.411C672.342 296.949 692.84 233.302 672.342 199.275C661.683 181.749 641.185 172.833 612.077 172.833Z" fill="#E7F0F5" fill-opacity="0.07"/>
<path d="M193.093 642.037C156.914 642.037 131.906 630.558 120.427 608.522C99.8264 569.166 125.552 500.189 188.994 424.038C296.814 294.797 481.401 181.134 600.393 170.783C645.797 166.785 676.852 178.162 690.073 203.58C710.674 242.936 684.948 311.913 621.506 388.064C513.686 517.203 329.099 630.865 210.107 641.217C204.162 641.729 198.525 642.037 193.093 642.037ZM600.496 171.91L600.598 173.14C482.118 183.492 298.249 296.744 190.839 425.576C128.011 500.907 102.389 568.961 122.477 607.395C135.288 631.89 165.523 642.754 209.902 638.962C328.382 628.611 512.251 515.358 619.662 386.526C682.489 311.196 708.111 243.141 688.023 204.707C675.212 180.212 644.977 169.348 600.598 173.14L600.496 171.91Z" fill="#E7F0F5" fill-opacity="0.07"/>
<path d="M190.429 642.14C190.326 642.14 190.326 642.14 190.429 642.14C146.357 642.14 116.84 627.893 104.951 600.938C85.4776 556.662 116.532 483.381 188.174 405.078C306.859 275.324 500.567 169.86 620.071 169.86C620.071 169.86 620.071 169.86 620.174 169.86C664.143 169.86 693.66 184.107 705.549 211.062C725.022 255.338 693.968 328.619 622.326 406.922C503.642 536.574 309.831 642.14 190.429 642.14ZM620.071 172.218C501.182 172.218 308.191 277.374 189.916 406.717C118.89 484.303 87.9374 556.559 107.103 600.016C118.582 626.048 147.28 639.782 190.326 639.782C190.326 639.782 190.326 639.782 190.429 639.782C309.318 639.782 502.309 534.626 620.584 405.283C691.61 327.697 722.563 255.44 703.397 211.984C691.918 185.951 663.118 172.218 620.071 172.218C620.174 172.218 620.071 172.218 620.071 172.218Z" fill="#E7F0F5" fill-opacity="0.07"/>
<path d="M190.531 642.14C183.664 642.14 177.002 641.832 170.545 641.217C128.114 637.118 100.236 619.899 89.987 591.304C72.1536 541.596 109.153 464.317 189.096 384.579C318.645 255.338 520.86 159.406 639.955 170.68C682.386 174.78 710.263 191.998 720.513 220.593C738.346 270.302 701.347 347.58 621.404 427.318C498.824 549.693 311.163 642.14 190.531 642.14ZM619.866 172.218C499.747 172.218 312.905 264.357 190.736 386.322C111.51 465.342 74.7158 541.698 92.2418 590.484C102.183 618.157 129.344 634.863 170.75 638.86C289.127 650.134 490.625 554.51 619.661 425.678C698.989 346.658 735.784 270.302 718.258 221.413C708.316 193.741 681.156 177.035 639.75 173.038C633.293 172.525 626.733 172.218 619.866 172.218Z" fill="#E7F0F5" fill-opacity="0.07"/>
<path d="M194.016 642.344C178.642 642.344 164.191 641.012 150.97 638.45C110.178 630.251 84.1453 609.855 75.7411 579.312C60.3674 523.762 103.721 442.692 191.761 362.544C332.071 234.737 541.973 149.977 659.531 173.55C700.322 181.749 726.355 202.145 734.759 232.687C750.133 288.238 706.779 369.308 618.739 449.456C494.212 562.811 314.955 642.344 194.016 642.344ZM616.382 172.013C496.057 172.013 317.518 251.238 193.298 364.184C105.976 443.717 62.8272 523.865 77.9959 578.595C86.1952 608.215 111.613 628.098 151.38 636.093C164.498 638.757 178.847 639.987 194.118 639.987C314.443 639.987 492.983 560.762 617.202 447.816C704.627 368.283 747.673 288.135 732.504 233.507C724.305 203.887 698.887 184.004 659.121 176.01C645.899 173.243 631.551 172.013 616.382 172.013Z" fill="#E7F0F5" fill-opacity="0.07"/>
<path d="M201.293 642.959C175.465 642.959 151.995 639.885 131.599 633.325C92.5496 620.924 68.5667 596.941 62.2123 564.246C50.2208 502.547 100.339 418.196 196.271 338.766C347.24 213.726 563.701 141.88 678.799 178.572C717.848 190.973 741.831 214.956 748.185 247.651C760.177 309.453 710.059 393.803 614.127 473.234C489.908 576.135 321.31 642.959 201.293 642.959ZM609.003 171.295C489.6 171.295 321.72 238.017 197.808 340.508C102.491 419.426 52.6806 502.957 64.5696 563.836C70.719 595.711 94.1895 618.976 132.419 631.173C246.901 667.66 462.338 596.018 612.795 471.389C708.009 392.471 757.922 309.043 746.033 248.061C739.884 216.186 716.413 192.921 678.184 180.724C657.891 174.37 634.523 171.295 609.003 171.295Z" fill="#E7F0F5" fill-opacity="0.07"/>
<path d="M213.079 644.702C174.645 644.702 140.31 638.757 112.74 626.253C75.4336 609.342 53.603 581.67 49.8108 546.208C42.4314 478.051 99.6215 391.036 202.933 313.451C364.254 192.408 586.147 135.116 697.657 185.747C734.964 202.658 756.795 230.33 760.587 265.792C768.069 333.949 710.776 420.964 607.568 498.55C486.116 589.664 330.329 644.702 213.079 644.702ZM597.216 169.655C480.581 169.655 325.41 224.488 204.265 315.398C101.671 392.369 44.7887 478.564 52.1681 546.003C55.9603 580.542 77.2784 607.498 113.765 624.101C224.558 674.424 445.427 617.234 606.133 496.602C708.727 419.529 765.609 333.334 758.23 265.997C754.438 231.458 733.119 204.502 696.633 187.899C669.37 175.497 635.343 169.655 597.216 169.655Z" fill="#E7F0F5" fill-opacity="0.07"/>
<path d="M229.478 647.777C175.977 647.777 129.139 637.732 94.702 616.619C59.1375 594.789 39.8692 562.914 38.9468 524.48C37.3069 449.969 101.876 361.109 211.644 286.803C382.907 170.988 609.003 129.991 715.696 195.381C751.26 217.211 770.529 249.086 771.349 287.52C772.988 362.031 708.419 450.891 598.651 525.197C482.836 603.603 341.603 647.777 229.478 647.777ZM580.92 166.478C469.307 166.478 328.689 210.549 212.977 288.75C103.824 362.544 39.6642 450.686 41.3041 524.377C42.124 561.991 60.9824 593.251 95.8294 614.569C201.805 679.549 426.773 638.552 597.319 523.147C706.472 449.354 770.631 361.211 768.991 287.52C768.171 249.906 749.313 218.646 714.466 197.328C680.439 176.42 633.908 166.478 580.92 166.478Z" fill="#E7F0F5" fill-opacity="0.07"/>
<path d="M250.181 652.901C179.462 652.901 118.07 637.118 77.4833 604.525C43.6612 577.365 27.2626 540.673 30.1324 498.55C35.5644 417.992 107.513 328.312 222.816 258.618C403.508 149.362 632.37 126.404 733.017 207.372C766.839 234.532 783.237 271.224 780.368 313.348C774.936 393.906 702.987 483.586 587.684 553.28C479.864 618.464 354.824 652.901 250.181 652.901ZM560.319 161.354C456.188 161.354 331.559 195.791 224.046 260.77C109.461 329.952 37.8192 418.914 32.4897 498.755C29.7224 540.058 45.8135 576.033 78.9182 602.783C178.847 683.136 406.48 660.076 586.454 551.333C701.04 482.048 772.681 392.984 778.01 313.246C780.778 271.942 764.687 235.967 731.582 209.217C691.303 176.932 630.423 161.354 560.319 161.354Z" fill="#E7F0F5" fill-opacity="0.07"/>
<path d="M274.369 660.69C184.587 660.69 106.796 637.22 61.3921 589.869C29.4149 556.559 16.501 514.435 23.8804 468.007C37.6142 382.222 116.942 292.952 236.242 229.305C425.851 128.146 655.841 124.969 749.108 222.131C781.085 255.44 793.999 297.564 786.62 343.993C772.886 429.778 693.558 519.048 574.258 582.695C476.891 634.555 368.968 660.69 274.369 660.69ZM536.234 153.564C442.044 153.564 334.429 179.597 237.472 231.355C118.787 294.694 39.869 383.247 26.3401 468.314C19.0633 513.923 31.7722 555.432 63.237 588.127C155.786 684.571 384.547 681.189 573.233 580.542C691.918 517.203 770.836 428.65 784.365 343.583C791.642 297.974 778.933 256.465 747.468 223.771C702.474 176.83 625.298 153.564 536.234 153.564Z" fill="#E7F0F5" fill-opacity="0.07"/>
<path d="M300.401 671.555C190.428 671.555 94.8042 637.63 46.5308 572.446C16.7059 532.167 7.89167 483.688 20.908 432.545C43.8661 342.66 130.266 255.338 252.128 198.865C449.936 107.136 679.516 125.482 763.866 239.554C793.691 279.833 802.505 328.312 789.489 379.455C766.531 469.339 680.131 556.662 558.269 613.135C473.509 652.491 382.907 671.555 300.401 671.555ZM510.201 142.803C428.105 142.803 337.811 161.866 253.358 200.915C132.111 257.08 46.1209 343.89 23.3678 433.058C10.4539 483.586 19.1657 531.244 48.5807 571.011C132.316 684.263 360.461 702.199 557.244 611.085C678.389 554.92 764.379 468.11 787.132 378.942C800.046 328.414 791.334 280.756 761.919 240.989C714.158 176.42 619.354 142.803 510.201 142.803Z" fill="#E7F0F5" fill-opacity="0.07"/>
<path d="M326.537 685.801C195.963 685.801 81.993 638.245 33.4121 552.152C6.1495 503.674 2.35733 448.124 22.4456 391.651C55.3453 299.307 148.202 215.366 270.884 167.196C475.866 86.74 702.884 128.249 776.985 259.848C804.248 308.326 808.143 363.774 787.952 420.349C755.155 512.693 662.195 596.531 539.513 644.702C468.795 672.477 395.308 685.801 326.537 685.801ZM484.066 128.556C415.499 128.556 342.32 141.778 271.704 169.45C149.637 217.416 57.2926 300.742 24.7004 392.471C4.81712 448.329 8.60929 503.162 35.5645 551.025C109.153 681.599 334.839 722.698 538.694 642.652C660.76 594.686 753.105 511.361 785.8 419.631C805.683 363.774 801.891 308.941 774.936 261.077C726.867 175.702 613.717 128.556 484.066 128.556Z" fill="#E7F0F5" fill-opacity="0.07"/>
<path d="M350.725 703.634C200.063 703.634 67.9518 638.655 22.1383 528.887C-2.04965 470.979 0.30765 407.64 29.0052 345.53C71.8465 252.673 170.238 173.96 292.202 134.808C503.437 67.0618 725.945 133.579 788.362 283.011C812.55 340.918 810.193 404.36 781.495 466.367C738.654 559.224 640.263 638.04 518.298 677.089C462.133 695.128 405.148 703.634 350.725 703.634ZM459.878 110.723C405.558 110.723 348.88 119.23 292.92 137.166C171.57 176.01 73.6913 254.313 31.1575 346.555C2.76744 407.947 0.410143 470.672 24.2906 527.965C69.6942 636.81 200.985 701.277 350.622 701.277C404.943 701.277 461.62 692.77 517.581 674.834C638.93 635.888 736.809 557.584 779.343 465.342C807.733 403.95 810.09 341.226 786.21 283.933C740.704 175.087 609.515 110.723 459.878 110.723Z" fill="#E7F0F5" fill-opacity="0.07"/>
<path d="M371.428 725.26C201.498 725.26 52.578 638.45 12.8114 502.752C-7.27686 433.98 2.56229 362.031 41.4064 294.592C94.7018 201.94 194.836 131.734 316.185 101.806C532.544 48.5109 748.493 141.573 797.586 309.248C817.674 378.02 807.835 449.969 768.991 517.408C715.696 610.06 615.562 680.266 494.212 710.194C452.908 720.34 411.604 725.26 371.428 725.26ZM439.072 89.0974C399.101 89.0974 358.002 93.9145 316.8 104.061C196.066 133.784 96.4442 203.682 43.4563 295.72C5.02208 362.646 -4.81708 433.98 15.1687 502.034C54.6278 636.708 202.523 722.8 371.428 722.8C411.4 722.8 452.498 717.983 493.7 707.836C614.435 678.114 714.056 608.215 767.044 516.178C805.478 449.354 815.317 377.917 795.331 309.863C755.872 175.292 607.978 89.0974 439.072 89.0974Z" fill="#E7F0F5" fill-opacity="0.07"/>
<path d="M387.724 750.473C199.243 750.473 35.9744 637.118 5.94445 473.542C-8.81427 393.599 10.5566 310.376 60.3673 239.247C122.477 150.49 225.481 88.1751 343.038 68.2918C563.291 30.985 770.221 152.232 804.555 338.458C819.314 418.402 799.943 501.624 750.133 572.753C688.023 661.511 584.917 723.825 467.36 743.709C440.609 748.218 413.859 750.473 387.724 750.473ZM422.776 63.8847C396.743 63.8847 370.198 66.037 343.448 70.5466C226.505 90.3274 124.014 152.335 62.3146 240.579C12.8114 311.298 -6.35449 393.804 8.19926 473.132C38.1267 635.478 200.37 748.116 387.724 748.116C413.757 748.116 440.302 745.963 467.052 741.454C583.995 721.673 686.486 659.666 748.185 571.421C797.586 500.804 816.854 418.197 802.198 338.868C772.271 176.522 610.027 63.8847 422.776 63.8847Z" fill="#E7F0F5" fill-opacity="0.07"/>
<path d="M399.101 779.17C192.889 779.17 18.4486 634.248 1.53757 441.257C-16.3984 236.48 150.15 53.943 372.761 34.4697C480.581 25.0405 585.327 54.7629 667.73 118.307C750.133 181.852 800.354 271.429 808.963 370.641C817.675 469.852 783.853 566.911 713.646 643.677C643.542 720.443 545.561 767.999 437.74 777.428C424.724 778.658 411.81 779.17 399.101 779.17ZM411.81 35.1871C398.896 35.1871 385.982 35.8021 372.965 36.9295C151.687 56.1978 -13.9386 237.607 3.89487 441.052C20.7034 632.711 194.118 776.711 399.101 776.711C411.81 776.711 424.621 776.198 437.535 775.071C544.741 765.642 642.21 718.496 711.904 642.14C781.598 565.784 815.215 469.442 806.606 370.846C797.996 272.249 748.186 183.287 666.295 120.152C594.244 64.7046 505.077 35.1871 411.81 35.1871Z" fill="#E7F0F5" fill-opacity="0.07"/>
<path d="M405.25 811.25C181.819 811.25 0 629.431 0 406C0 182.569 181.819 0.75 405.25 0.75C628.681 0.75 810.5 182.569 810.5 406C810.5 629.431 628.681 811.25 405.25 811.25ZM405.25 3.1073C183.049 3.1073 2.3573 183.799 2.3573 406C2.3573 628.098 183.049 808.893 405.25 808.893C627.451 808.893 808.143 628.201 808.143 406C808.04 183.799 627.348 3.1073 405.25 3.1073Z" fill="#E7F0F5" fill-opacity="0.07"/>
</g>
</svg>
