<svg width="779" height="386" viewBox="0 0 779 386" fill="none" xmlns="http://www.w3.org/2000/svg">
<g style="mix-blend-mode:overlay">
<path d="M269.69 -275.875C252.061 -275.875 238.051 -270.971 228.361 -261.048C204.544 -236.764 209.681 -184.344 242.487 -117.33C306.466 13.5457 456.371 165.436 576.856 221.242C631.845 246.693 673.758 248.795 695.006 227.196C718.823 202.912 713.686 150.492 680.879 83.4782C616.901 -47.3972 466.995 -199.288 346.51 -255.094C316.623 -268.87 290.588 -275.875 269.69 -275.875ZM577.323 220.074L577.907 218.79C457.889 163.218 308.567 11.9112 244.822 -118.497C212.6 -184.46 207.229 -235.713 230.229 -259.18C250.543 -279.961 291.405 -277.626 345.343 -252.642C465.244 -197.069 614.683 -45.7628 678.428 84.6457C710.65 150.609 716.021 201.862 693.021 225.328C672.707 246.109 631.845 243.774 577.907 218.79L577.323 220.074Z" fill="#E7F0F5" fill-opacity="0.07"/>
<path d="M256.964 -279.377C236.3 -279.377 220.305 -273.423 209.915 -261.631C185.631 -233.962 194.62 -176.871 234.315 -104.954C309.385 30.7079 472.016 180.964 596.937 229.881C651.809 251.363 693.021 250.663 713.102 227.78C737.386 200.11 728.396 143.02 688.702 71.103C613.632 -64.5591 451.001 -214.815 326.08 -263.733C299.694 -274.123 276.345 -279.377 256.964 -279.377ZM666.169 242.841C647.256 242.841 624.256 237.704 597.988 227.43C473.65 178.629 311.603 28.9567 236.767 -106.238C197.539 -177.105 188.55 -233.028 212.016 -259.88C231.28 -281.829 271.441 -282.412 325.146 -261.281C449.483 -212.48 611.531 -62.8079 686.367 72.3873C725.594 143.254 734.584 199.176 711.117 226.029C701.311 237.237 686.016 242.841 666.169 242.841Z" fill="#E7F0F5" fill-opacity="0.07"/>
<path d="M245.406 -282.062C221.122 -282.062 202.676 -274.941 191.585 -260.697C167.068 -229.292 180.144 -167.298 227.544 -90.711C314.171 49.0374 489.295 196.374 617.952 237.587C672.24 254.982 712.635 251.246 731.549 227.079C756.066 195.674 742.99 133.68 695.59 57.093C608.962 -82.7721 433.839 -230.109 305.182 -271.321C282.649 -278.443 262.568 -282.062 245.406 -282.062ZM677.844 245.526C660.915 245.526 641.185 242.023 618.886 234.785C490.812 193.689 316.273 47.0526 229.995 -92.3455C183.179 -167.882 169.986 -228.708 193.803 -259.18C212.016 -282.413 251.244 -285.798 304.364 -268.87C432.438 -227.774 606.977 -81.1376 693.255 58.2605C740.071 133.797 753.264 194.623 729.447 225.095C718.94 238.754 701.194 245.526 677.844 245.526Z" fill="#E7F0F5" fill-opacity="0.07"/>
<path d="M234.549 -284.164C206.062 -284.164 185.164 -275.408 173.255 -258.246C148.621 -222.637 166.367 -155.74 222.057 -74.9499C320.476 68.1842 507.858 211.085 639.551 243.541C693.839 256.85 732.016 250.312 749.878 224.394C774.512 188.786 756.766 121.889 701.077 41.0985C602.658 -102.036 415.276 -244.936 283.583 -277.392C265.37 -281.946 249.025 -284.164 234.549 -284.164ZM688.702 247.627C674.458 247.627 658.23 245.409 640.251 240.973C509.025 208.633 322.461 66.3163 224.275 -76.3508C169.286 -156.324 151.54 -221.937 175.474 -256.611C192.753 -281.595 229.879 -287.783 282.999 -274.707C414.225 -242.368 600.79 -100.051 698.976 42.6162C753.848 122.472 771.71 188.202 747.66 222.876C736.335 239.338 716.255 247.627 688.702 247.627Z" fill="#E7F0F5" fill-opacity="0.07"/>
<path d="M226.026 -285.215C191.818 -285.215 167.651 -274.591 155.043 -253.809C130.642 -213.531 153.525 -141.73 217.853 -56.9707C328.415 88.7319 527.471 225.678 661.499 248.328L661.732 247.043L661.499 248.328C714.62 257.317 751.512 247.627 768.091 220.191C792.491 179.913 769.608 108.112 705.28 23.3525C594.719 -122.35 395.779 -259.296 261.634 -281.946C248.792 -284.164 236.883 -285.215 226.026 -285.215ZM697.224 248.678C686.483 248.678 674.808 247.627 662.083 245.409C528.522 222.876 330.283 86.397 220.072 -58.8386C157.377 -141.38 134.028 -213.881 157.377 -252.642C173.372 -279.027 209.214 -288.25 261.167 -279.494C394.728 -256.961 592.967 -120.482 703.178 24.7535C765.872 107.295 789.222 179.796 765.872 218.557C753.731 238.521 730.381 248.678 697.224 248.678Z" fill="#E7F0F5" fill-opacity="0.07"/>
<path d="M219.955 -285.798C178.743 -285.798 150.256 -272.722 137.18 -247.621C113.713 -202.79 143.017 -124.218 215.285 -37.4734C338.105 109.747 548.37 239.221 683.915 251.013C735.635 255.566 771.01 242.607 786.07 213.653C809.537 168.822 780.233 90.2499 707.965 3.50548C585.145 -143.598 374.881 -273.073 239.335 -284.864C232.564 -285.448 226.143 -285.798 219.955 -285.798ZM684.032 249.729L684.148 248.328C549.187 236.536 339.739 107.529 217.386 -39.2246C145.819 -125.035 116.632 -202.556 139.515 -246.337C154.109 -274.24 188.549 -286.615 239.102 -282.296C374.063 -270.504 583.511 -141.497 705.864 5.25671C777.431 91.0671 806.618 168.588 783.735 212.369C769.142 240.272 734.701 252.648 684.148 248.328L684.032 249.729Z" fill="#E7F0F5" fill-opacity="0.07"/>
<path d="M216.919 -285.915C216.803 -285.915 216.803 -285.915 216.919 -285.915C166.717 -285.915 133.094 -269.687 119.551 -238.982C97.3685 -188.547 132.743 -105.071 214.351 -15.8752C349.546 131.929 570.201 252.063 706.331 252.063C706.331 252.063 706.331 252.063 706.447 252.063C756.533 252.063 790.156 235.835 803.699 205.13C825.881 154.695 790.506 71.2195 708.899 -17.9767C573.704 -165.664 352.932 -285.915 216.919 -285.915ZM706.331 249.378C570.902 249.378 351.064 129.594 216.336 -17.7432C135.429 -106.122 100.17 -188.43 122.003 -237.932C135.078 -267.586 167.768 -283.23 216.803 -283.23C216.803 -283.23 216.803 -283.23 216.919 -283.23C352.348 -283.23 572.186 -163.446 706.914 -16.1087C787.821 72.2702 823.079 154.578 801.247 204.08C788.172 233.734 755.365 249.378 706.331 249.378C706.447 249.378 706.331 249.378 706.331 249.378Z" fill="#E7F0F5" fill-opacity="0.07"/>
<path d="M217.036 -285.915C209.214 -285.915 201.625 -285.565 194.27 -284.865C145.936 -280.195 114.18 -260.581 102.505 -228.008C82.1912 -171.385 124.338 -83.356 215.402 7.47466C362.972 154.695 593.318 263.972 728.98 251.13C777.314 246.46 809.07 226.846 820.744 194.273C841.059 137.65 798.912 49.621 707.848 -41.2096C568.217 -180.608 354.449 -285.915 217.036 -285.915ZM706.097 249.378C569.267 249.378 356.434 144.421 217.27 5.48991C127.023 -84.5235 85.1099 -171.501 105.074 -227.074C116.399 -258.596 147.337 -277.626 194.504 -282.179C329.349 -295.022 558.877 -186.095 705.864 -39.3416C796.227 50.6717 838.14 137.65 818.176 193.339C806.851 224.861 775.913 243.891 728.746 248.444C721.391 249.028 713.919 249.378 706.097 249.378Z" fill="#E7F0F5" fill-opacity="0.07"/>
<path d="M221.006 -286.148C203.493 -286.148 187.032 -284.631 171.971 -281.712C125.505 -272.372 95.8509 -249.139 86.2775 -214.348C68.7652 -151.07 118.15 -58.7217 218.437 32.5758C378.266 178.162 617.368 274.713 751.279 247.861C797.745 238.521 827.399 215.288 836.973 180.497C854.485 117.219 805.1 24.8704 704.813 -66.4272C562.963 -195.551 358.769 -286.148 221.006 -286.148ZM702.128 249.612C565.065 249.612 361.688 159.365 220.188 30.7079C120.718 -59.8893 71.5671 -151.187 88.846 -213.531C98.1859 -247.271 127.14 -269.92 172.438 -279.027C187.382 -282.062 203.727 -283.463 221.122 -283.463C358.186 -283.463 561.562 -193.216 703.062 -64.5592C802.649 26.0379 851.683 117.335 834.404 179.563C825.064 213.303 796.111 235.952 750.812 245.059C735.751 248.211 719.407 249.612 702.128 249.612Z" fill="#E7F0F5" fill-opacity="0.07"/>
<path d="M229.295 -286.849C199.874 -286.849 173.139 -283.346 149.906 -275.874C105.424 -261.748 78.1052 -234.428 70.8668 -197.186C57.2072 -126.903 114.297 -30.8185 223.574 59.6619C395.545 202.095 642.119 283.936 773.228 242.14C817.709 228.014 845.029 200.694 852.267 163.452C865.927 93.052 808.836 -3.03229 699.559 -93.5127C558.06 -210.729 366.008 -286.849 229.295 -286.849ZM693.722 250.429C557.71 250.429 366.475 174.426 225.326 57.6771C116.749 -32.2195 60.0091 -127.37 73.552 -196.719C80.5569 -233.028 107.292 -259.529 150.84 -273.423C281.248 -314.985 526.654 -233.378 698.042 -91.4112C806.501 -1.51457 863.358 93.519 849.815 162.985C842.81 199.293 816.075 225.795 772.527 239.689C749.411 246.927 722.792 250.429 693.722 250.429Z" fill="#E7F0F5" fill-opacity="0.07"/>
<path d="M242.721 -288.834C198.94 -288.834 159.829 -282.063 128.424 -267.819C85.9273 -248.556 61.0598 -217.034 56.7401 -176.638C48.3342 -99.0004 113.48 0.119354 231.163 88.4982C414.926 226.379 667.687 291.641 794.71 233.967C837.206 214.704 862.074 183.182 866.393 142.786C874.916 65.1485 809.654 -33.9713 692.087 -122.35C553.74 -226.14 376.282 -288.834 242.721 -288.834ZM680.296 252.297C547.436 252.297 370.678 189.836 232.681 86.28C115.815 -1.39838 51.0194 -99.5842 59.4253 -176.405C63.745 -215.749 88.0288 -246.454 129.591 -265.368C255.797 -322.691 507.391 -257.545 690.453 -120.132C807.319 -32.3368 872.114 65.849 863.708 142.553C859.389 181.897 835.105 212.602 793.542 231.516C762.487 245.642 723.726 252.297 680.296 252.297Z" fill="#E7F0F5" fill-opacity="0.07"/>
<path d="M261.401 -292.336C200.458 -292.336 147.104 -280.895 107.876 -256.845C67.3641 -231.977 45.4153 -195.668 44.3646 -151.887C42.4966 -67.0111 116.048 34.2102 241.086 118.853C436.174 250.779 693.722 297.479 815.257 222.993C855.769 198.126 877.718 161.817 878.652 118.036C880.52 33.1595 806.968 -68.0618 681.93 -152.705C550.004 -242.018 389.124 -292.336 261.401 -292.336ZM661.733 255.916C534.593 255.916 374.414 205.714 242.604 116.635C118.267 32.5757 45.1818 -67.8283 47.0498 -151.771C47.9838 -194.618 69.4656 -230.226 109.16 -254.51C229.879 -328.529 486.142 -281.829 680.412 -150.37C804.75 -66.3106 877.835 34.0935 875.967 118.036C875.033 160.883 853.551 196.491 813.856 220.775C775.096 244.592 722.092 255.916 661.733 255.916Z" fill="#E7F0F5" fill-opacity="0.07"/>
<path d="M284.984 -298.174C204.427 -298.174 134.495 -280.195 88.2623 -243.068C49.7351 -212.13 31.0553 -170.334 34.3243 -122.35C40.512 -30.5855 122.47 71.5698 253.812 150.959C459.64 275.413 720.341 301.565 834.988 209.333C873.515 178.395 892.195 136.599 888.926 88.6151C882.738 -3.14951 800.781 -105.305 669.438 -184.694C546.618 -258.946 404.185 -298.174 284.984 -298.174ZM638.266 261.754C519.649 261.754 377.683 222.526 255.213 148.507C124.688 69.7018 43.0804 -31.6362 37.0095 -122.584C33.8573 -169.633 52.1869 -210.612 89.8967 -241.084C203.727 -332.615 463.026 -306.346 668.037 -182.476C798.562 -103.554 880.17 -2.09875 886.241 88.7319C889.393 135.782 871.063 176.76 833.354 207.232C787.471 244.008 718.122 261.754 638.266 261.754Z" fill="#E7F0F5" fill-opacity="0.07"/>
<path d="M312.537 -307.047C210.265 -307.047 121.652 -280.311 69.9325 -226.373C33.5068 -188.43 18.7965 -140.446 27.2024 -87.5587C42.8467 10.1601 133.21 111.848 269.106 184.349C485.091 299.581 747.076 303.2 853.317 192.522C889.743 154.578 904.453 106.595 896.047 53.7074C880.403 -44.0114 790.039 -145.7 654.144 -218.201C543.232 -277.276 420.296 -307.047 312.537 -307.047ZM610.83 270.627C503.538 270.627 380.951 240.973 270.507 182.014C135.312 109.864 45.4152 8.99261 30.0044 -87.9089C21.7152 -139.862 36.192 -187.145 72.0339 -224.388C177.458 -334.249 438.042 -330.396 652.976 -215.749C788.171 -143.598 878.068 -42.7271 893.479 54.1744C901.768 106.128 887.291 153.411 851.449 190.654C800.197 244.125 712.285 270.627 610.83 270.627Z" fill="#E7F0F5" fill-opacity="0.07"/>
<path d="M342.191 -319.422C216.919 -319.422 107.993 -280.778 53.004 -206.526C19.0301 -160.643 8.98966 -105.421 23.8168 -47.1636C49.9685 55.2251 148.388 154.695 287.202 219.024C512.527 323.514 774.045 302.616 870.129 172.674C904.103 126.792 914.144 71.57 899.316 13.3123C873.165 -89.0764 774.745 -188.546 635.931 -252.875C539.38 -297.707 436.174 -319.422 342.191 -319.422ZM581.176 282.885C487.66 282.885 384.804 261.17 288.603 216.689C150.489 152.71 52.537 53.8242 26.6187 -47.7473C11.9084 -105.305 21.832 -159.593 55.339 -204.891C150.723 -333.899 410.606 -354.33 634.764 -250.54C772.761 -186.562 870.713 -87.6755 896.631 13.896C911.342 71.4532 901.418 125.741 867.911 171.04C813.506 244.592 705.513 282.885 581.176 282.885Z" fill="#E7F0F5" fill-opacity="0.07"/>
<path d="M371.962 -335.65C223.224 -335.65 93.3992 -281.479 38.0603 -183.41C7.00508 -128.187 2.68537 -64.9095 25.5681 -0.580841C63.0445 104.61 168.819 200.227 308.567 255.099C542.065 346.747 800.664 299.464 885.073 149.558C916.129 94.336 920.565 31.1748 897.565 -33.2705C860.206 -138.461 754.315 -233.962 614.566 -288.834C534.01 -320.473 450.301 -335.65 371.962 -335.65ZM551.405 299.114C473.3 299.114 389.941 284.053 309.501 252.531C170.454 197.892 65.2628 102.975 28.1366 -1.51486C5.48734 -65.143 9.80705 -127.604 40.512 -182.125C124.338 -330.863 381.419 -377.68 613.632 -286.499C752.68 -231.86 857.871 -136.944 895.114 -32.4533C917.763 31.1748 913.443 93.6355 882.738 148.157C827.983 245.409 699.092 299.114 551.405 299.114Z" fill="#E7F0F5" fill-opacity="0.07"/>
<path d="M399.515 -355.964C227.894 -355.964 77.4046 -281.946 25.2178 -156.908C-2.33491 -90.9445 0.350315 -18.7937 33.04 51.9561C81.841 157.731 193.92 247.394 332.851 291.992C573.471 369.163 826.932 293.393 898.032 123.173C925.585 57.2097 922.9 -15.0578 890.21 -85.6908C841.409 -191.465 729.33 -281.245 590.399 -325.727C526.421 -346.274 461.508 -355.964 399.515 -355.964ZM523.852 319.428C461.975 319.428 397.413 309.738 333.668 289.306C195.438 245.059 83.9425 155.863 35.4917 50.7886C3.15229 -19.144 0.467066 -90.5943 27.6696 -155.857C79.3893 -279.844 228.945 -353.279 399.398 -353.279C461.275 -353.279 525.837 -343.589 589.582 -323.158C727.813 -278.793 839.308 -189.597 887.759 -84.5233C920.098 -14.5908 922.783 56.8595 895.581 122.122C843.744 246.109 694.306 319.428 523.852 319.428Z" fill="#E7F0F5" fill-opacity="0.07"/>
<path d="M423.098 -380.599C229.528 -380.599 59.8923 -281.712 14.5937 -127.137C-8.28906 -48.7983 2.91884 33.1594 47.1667 109.98C107.876 215.521 221.94 295.494 360.17 329.585C606.627 390.294 852.617 284.286 908.54 93.2851C931.423 14.9466 920.215 -67.0111 875.967 -143.832C815.258 -249.373 701.194 -329.346 562.963 -363.437C515.913 -374.995 468.864 -380.599 423.098 -380.599ZM500.152 344.062C454.62 344.062 407.804 338.574 360.871 327.016C223.341 293.159 109.861 213.536 49.5016 108.696C5.72081 32.459 -5.48708 -48.7983 17.2789 -126.32C62.2273 -279.728 230.696 -377.797 423.098 -377.797C468.63 -377.797 515.446 -372.309 562.38 -360.751C699.91 -326.894 813.39 -247.271 873.749 -142.431C917.53 -66.3106 928.737 15.0634 905.971 92.5846C861.023 245.876 692.555 344.062 500.152 344.062Z" fill="#E7F0F5" fill-opacity="0.07"/>
<path d="M441.661 -409.319C226.96 -409.319 40.9788 -280.195 6.77137 -93.8633C-10.0405 -2.79922 12.0251 92.0008 68.765 173.025C139.515 274.129 256.847 345.112 390.758 367.762C641.652 410.258 877.368 272.144 916.478 60.0117C933.29 -31.0525 911.225 -125.853 854.485 -206.876C783.735 -307.981 666.286 -378.964 532.375 -401.613C501.903 -406.75 471.432 -409.319 441.661 -409.319ZM481.589 372.782C451.935 372.782 421.697 370.33 391.225 365.193C258.015 342.661 141.266 272.028 70.9832 171.507C14.5935 90.9501 -7.2385 -3.03275 9.33984 -93.3964C43.4305 -278.327 228.244 -406.634 441.661 -406.634C471.315 -406.634 501.553 -404.182 532.024 -399.045C665.235 -376.512 781.984 -305.879 852.267 -205.359C908.539 -124.919 930.488 -30.819 913.793 59.5446C879.703 244.475 694.889 372.782 481.589 372.782Z" fill="#E7F0F5" fill-opacity="0.07"/>
<path d="M454.62 -442.008C219.722 -442.008 21.015 -276.926 1.75139 -57.0874C-18.6797 176.177 171.037 384.106 424.616 406.289C547.436 417.03 666.753 383.173 760.619 310.788C854.485 238.404 911.692 136.365 921.499 23.3525C931.423 -89.6603 892.896 -200.222 812.923 -287.666C733.066 -375.111 621.454 -429.283 498.635 -440.024C483.808 -441.425 469.097 -442.008 454.62 -442.008ZM469.097 405.472C454.387 405.472 439.676 404.771 424.849 403.487C172.788 381.538 -15.8777 174.893 4.43662 -56.8539C23.5834 -275.174 221.123 -439.206 454.62 -439.206C469.097 -439.206 483.691 -438.623 498.401 -437.339C620.52 -426.598 731.549 -372.893 810.938 -285.915C890.327 -198.937 928.621 -89.1934 918.814 23.119C909.007 135.431 852.267 236.769 758.985 308.687C676.91 371.848 575.339 405.472 469.097 405.472Z" fill="#E7F0F5" fill-opacity="0.07"/>
<path d="M461.625 -478.551C207.112 -478.551 0 -271.438 0 -16.9258C0 237.587 207.112 444.699 461.625 444.699C716.138 444.699 923.25 237.587 923.25 -16.9258C923.25 -271.438 716.138 -478.551 461.625 -478.551ZM461.625 442.014C208.513 442.014 2.68522 236.186 2.68522 -16.9258C2.68522 -269.921 208.513 -475.866 461.625 -475.866C714.737 -475.866 920.565 -270.037 920.565 -16.9258C920.448 236.186 714.62 442.014 461.625 442.014Z" fill="#E7F0F5" fill-opacity="0.07"/>
</g>
</svg>
