<svg width="36" height="34" viewBox="0 0 36 34" fill="none" xmlns="http://www.w3.org/2000/svg">
<path d="M30.75 3.13062C31.3136 3.13062 31.8541 3.35509 32.2526 3.75466C32.6511 4.15423 32.875 4.69616 32.875 5.26124V22.3062C32.875 22.8713 32.6511 23.4132 32.2526 23.8128C31.8541 24.2123 31.3136 24.4368 30.75 24.4368H10.3798C9.25267 24.4371 8.17184 24.8862 7.375 25.6854L3.125 29.9466V5.26124C3.125 4.69616 3.34888 4.15423 3.7474 3.75466C4.14591 3.35509 4.68641 3.13062 5.25 3.13062H30.75ZM5.25 1C4.12283 1 3.04183 1.44895 2.2448 2.24809C1.44777 3.04722 1 4.13109 1 5.26124L1 32.5182C1.00004 32.729 1.06246 32.9351 1.17934 33.1103C1.29623 33.2855 1.46233 33.422 1.65662 33.5025C1.85092 33.5831 2.06467 33.604 2.27083 33.5627C2.47698 33.5213 2.66628 33.4196 2.81475 33.2704L8.87738 27.1917C9.2758 26.7921 9.81621 26.5675 10.3798 26.5674H30.75C31.8772 26.5674 32.9582 26.1185 33.7552 25.3193C34.5522 24.5202 35 23.4363 35 22.3062V5.26124C35 4.13109 34.5522 3.04722 33.7552 2.24809C32.9582 1.44895 31.8772 1 30.75 1L5.25 1Z" fill="black" stroke="white" stroke-width="0.5"/>
<path d="M11.625 13.7838C11.625 14.3489 11.4011 14.8908 11.0026 15.2904C10.6041 15.69 10.0636 15.9144 9.5 15.9144C8.93642 15.9144 8.39591 15.69 7.9974 15.2904C7.59888 14.8908 7.375 14.3489 7.375 13.7838C7.375 13.2187 7.59888 12.6768 7.9974 12.2772C8.39591 11.8777 8.93642 11.6532 9.5 11.6532C10.0636 11.6532 10.6041 11.8777 11.0026 12.2772C11.4011 12.6768 11.625 13.2187 11.625 13.7838ZM20.125 13.7838C20.125 14.3489 19.9011 14.8908 19.5026 15.2904C19.1041 15.69 18.5636 15.9144 18 15.9144C17.4364 15.9144 16.8959 15.69 16.4974 15.2904C16.0989 14.8908 15.875 14.3489 15.875 13.7838C15.875 13.2187 16.0989 12.6768 16.4974 12.2772C16.8959 11.8777 17.4364 11.6532 18 11.6532C18.5636 11.6532 19.1041 11.8777 19.5026 12.2772C19.9011 12.6768 20.125 13.2187 20.125 13.7838ZM28.625 13.7838C28.625 14.3489 28.4011 14.8908 28.0026 15.2904C27.6041 15.69 27.0636 15.9144 26.5 15.9144C25.9364 15.9144 25.3959 15.69 24.9974 15.2904C24.5989 14.8908 24.375 14.3489 24.375 13.7838C24.375 13.2187 24.5989 12.6768 24.9974 12.2772C25.3959 11.8777 25.9364 11.6532 26.5 11.6532C27.0636 11.6532 27.6041 11.8777 28.0026 12.2772C28.4011 12.6768 28.625 13.2187 28.625 13.7838Z" fill="#191C1F" stroke="white" stroke-width="0.5"/>
</svg>
