<svg width="72" height="18" viewBox="0 0 72 18" fill="none" xmlns="http://www.w3.org/2000/svg">
<path d="M18 9C18 4.05 13.95 -6.09774e-07 9 -3.93402e-07C4.05 -1.77031e-07 -6.09774e-07 4.05 -3.93402e-07 9C-1.77031e-07 13.95 4.05 18 9 18C13.95 18 18 13.95 18 9ZM27 9C27 13.95 31.05 18 36 18C40.95 18 45 13.95 45 9C45 4.05 40.95 -1.78998e-06 36 -1.57361e-06C31.05 -1.35724e-06 27 4.05 27 9ZM54 9C54 13.95 58.05 18 63 18C67.95 18 72 13.95 72 9C72 4.05 67.95 -2.97019e-06 63 -2.75382e-06C58.05 -2.53745e-06 54 4.05 54 9Z" fill="#14AC63"/>
</svg>
