<svg width="258" height="78" viewBox="0 0 258 78" fill="none" xmlns="http://www.w3.org/2000/svg">
<mask id="mask0_1_6" style="mask-type:alpha" maskUnits="userSpaceOnUse" x="0" y="0" width="258" height="77">
<rect width="258" height="77" fill="#D9D9D9"/>
</mask>
<g mask="url(#mask0_1_6)">
<g filter="url(#filter0_d_1_6)">
<path d="M100.364 77.4492H229.674C245.294 77.4492 258 61.7496 258 35.4492C258 16.1488 245.294 0.449219 229.674 0.449219H100.364H67.7252H40.6817C25.0618 0.449219 12.3561 16.1488 12.3561 35.4492C12.3561 57.5727 9.32533 66.3587 6.17803 71.2558C3.03073 76.297 0 77.4492 0 77.4492H67.7252H100.364Z" fill="white"/>
</g>
<path d="M37.3977 38.2617V33.9606H38.1648C38.4261 33.7409 38.6705 33.4284 38.8977 33.0231C39.125 32.6178 39.3182 32.0704 39.4773 31.381C39.6364 30.6916 39.7462 29.8072 39.8068 28.7276L40.0795 23.8129H47.2557V33.9606H48.5739V38.2447H46.892V35.4492H39.0795V38.2617H37.3977ZM40.233 33.9606H45.5739V25.3242H41.6705L41.4886 28.7276C41.4394 29.5496 41.358 30.2882 41.2443 30.9435C41.1345 31.5988 40.9924 32.1784 40.8182 32.6822C40.6477 33.1822 40.4527 33.6083 40.233 33.9606ZM53.8769 35.6254C53.0588 35.6254 52.3447 35.4379 51.7349 35.0629C51.125 34.6879 50.6516 34.1632 50.3144 33.489C49.9773 32.8147 49.8088 32.0269 49.8088 31.1254C49.8088 30.2201 49.9773 29.4284 50.3144 28.7504C50.6516 28.0723 51.125 27.5458 51.7349 27.1708C52.3447 26.7958 53.0588 26.6083 53.8769 26.6083C54.6951 26.6083 55.4091 26.7958 56.019 27.1708C56.6288 27.5458 57.1023 28.0723 57.4394 28.7504C57.7766 29.4284 57.9451 30.2201 57.9451 31.1254C57.9451 32.0269 57.7766 32.8147 57.4394 33.489C57.1023 34.1632 56.6288 34.6879 56.019 35.0629C55.4091 35.4379 54.6951 35.6254 53.8769 35.6254ZM53.8826 34.1992C54.4129 34.1992 54.8523 34.0591 55.2008 33.7788C55.5493 33.4985 55.8069 33.1254 55.9735 32.6594C56.144 32.1935 56.2292 31.6803 56.2292 31.1197C56.2292 30.5629 56.144 30.0515 55.9735 29.5856C55.8069 29.1159 55.5493 28.739 55.2008 28.4549C54.8523 28.1708 54.4129 28.0288 53.8826 28.0288C53.3485 28.0288 52.9053 28.1708 52.5531 28.4549C52.2046 28.739 51.9451 29.1159 51.7747 29.5856C51.608 30.0515 51.5247 30.5629 51.5247 31.1197C51.5247 31.6803 51.608 32.1935 51.7747 32.6594C51.9451 33.1254 52.2046 33.4985 52.5531 33.7788C52.9053 34.0591 53.3485 34.1992 53.8826 34.1992ZM66.4144 23.4719L67.1189 24.5458C66.8576 24.7844 66.5602 24.9549 66.2269 25.0572C65.8973 25.1557 65.5166 25.2182 65.0848 25.2447C64.653 25.2674 64.1587 25.2882 63.6019 25.3072C62.9731 25.3261 62.456 25.4625 62.0507 25.7163C61.6454 25.9663 61.3329 26.3375 61.1132 26.8299C60.8973 27.3185 60.7572 27.9322 60.6928 28.6708H60.8007C61.0848 28.1291 61.4788 27.7238 61.9826 27.4549C62.4901 27.186 63.0602 27.0515 63.6928 27.0515C64.3973 27.0515 65.0242 27.2125 65.5735 27.5344C66.1227 27.8564 66.5545 28.328 66.8689 28.9492C67.1871 29.5666 67.3462 30.3223 67.3462 31.2163C67.3462 32.1216 67.1795 32.9038 66.8462 33.5629C66.5166 34.2219 66.0507 34.7314 65.4485 35.0913C64.85 35.4473 64.1435 35.6254 63.3291 35.6254C62.5148 35.6254 61.8045 35.4416 61.1985 35.0742C60.5962 34.703 60.1284 34.1538 59.7951 33.4265C59.4655 32.6992 59.3007 31.8015 59.3007 30.7333V29.8697C59.3007 27.8735 59.6568 26.3716 60.3689 25.364C61.081 24.3564 62.1454 23.8394 63.5621 23.8129C64.0204 23.8015 64.4295 23.7996 64.7894 23.8072C65.1492 23.811 65.4636 23.7939 65.7326 23.756C66.0053 23.7144 66.2326 23.6197 66.4144 23.4719ZM63.3348 34.1992C63.8083 34.1992 64.2155 34.0799 64.5564 33.8413C64.9011 33.5988 65.1663 33.256 65.3519 32.8129C65.5375 32.3697 65.6303 31.8469 65.6303 31.2447C65.6303 30.6538 65.5375 30.1519 65.3519 29.739C65.1663 29.3261 64.9011 29.0117 64.5564 28.7958C64.2117 28.5761 63.7988 28.4663 63.3178 28.4663C62.9617 28.4663 62.6435 28.5288 62.3632 28.6538C62.0829 28.775 61.8424 28.9549 61.6416 29.1935C61.4447 29.4322 61.2913 29.7238 61.1814 30.0685C61.0754 30.4094 61.0185 30.8015 61.011 31.2447C61.011 32.1462 61.2174 32.864 61.6303 33.3981C62.047 33.9322 62.6151 34.1992 63.3348 34.1992ZM69.0839 38.7219V26.7219H70.743V28.1367H70.8851C70.9835 27.9549 71.1256 27.7447 71.3112 27.506C71.4968 27.2674 71.7544 27.0591 72.0839 26.881C72.4135 26.6992 72.8491 26.6083 73.3907 26.6083C74.0953 26.6083 74.7241 26.7863 75.2771 27.1424C75.8301 27.4985 76.2638 28.0117 76.5782 28.6822C76.8964 29.3526 77.0555 30.1594 77.0555 31.1026C77.0555 32.0458 76.8983 32.8545 76.5839 33.5288C76.2695 34.1992 75.8377 34.7163 75.2885 35.0799C74.7392 35.4397 74.1123 35.6197 73.4078 35.6197C72.8775 35.6197 72.4438 35.5307 72.1066 35.3526C71.7733 35.1746 71.512 34.9663 71.3226 34.7276C71.1332 34.489 70.9873 34.2769 70.8851 34.0913H70.7828V38.7219H69.0839ZM70.7487 31.0856C70.7487 31.6992 70.8377 32.2371 71.0157 32.6992C71.1938 33.1613 71.4513 33.5231 71.7885 33.7844C72.1256 34.042 72.5385 34.1708 73.0271 34.1708C73.5347 34.1708 73.9589 34.0363 74.2998 33.7674C74.6407 33.4947 74.8983 33.1254 75.0726 32.6594C75.2506 32.1935 75.3396 31.6689 75.3396 31.0856C75.3396 30.5098 75.2525 29.9928 75.0782 29.5344C74.9078 29.0761 74.6502 28.7144 74.3055 28.4492C73.9646 28.1841 73.5385 28.0515 73.0271 28.0515C72.5347 28.0515 72.118 28.1784 71.7771 28.4322C71.44 28.686 71.1843 29.0401 71.0101 29.4947C70.8358 29.9492 70.7487 30.4795 70.7487 31.0856ZM80.0773 29.7219H82.6114C83.6796 29.7219 84.5016 29.9871 85.0773 30.5174C85.6531 31.0477 85.941 31.7314 85.941 32.5685C85.941 33.114 85.8122 33.6045 85.5546 34.0401C85.297 34.4757 84.9201 34.8204 84.4239 35.0742C83.9277 35.3242 83.3235 35.4492 82.6114 35.4492H78.7989V26.7219H80.4637V33.9833H82.6114C83.1001 33.9833 83.5016 33.8564 83.816 33.6026C84.1304 33.3451 84.2876 33.0174 84.2876 32.6197C84.2876 32.1992 84.1304 31.8564 83.816 31.5913C83.5016 31.3223 83.1001 31.1879 82.6114 31.1879H80.0773V29.7219ZM87.1796 35.4492V26.7219H88.8785V35.4492H87.1796ZM92.6631 33.0685L96.5097 26.7219H98.3392V35.4492H96.6744V29.0969L92.8449 35.4492H90.9983V26.7219H92.6631V33.0685ZM95.7824 23.7674H97.1801C97.1801 24.4076 96.9528 24.9284 96.4983 25.3299C96.0475 25.7276 95.4377 25.9265 94.6688 25.9265C93.9036 25.9265 93.2956 25.7276 92.8449 25.3299C92.3941 24.9284 92.1688 24.4076 92.1688 23.7674H93.5608C93.5608 24.0515 93.6441 24.3034 93.8108 24.5231C93.9775 24.739 94.2634 24.8469 94.6688 24.8469C95.0665 24.8469 95.3506 24.739 95.521 24.5231C95.6953 24.3072 95.7824 24.0553 95.7824 23.7674ZM103.685 37.9663V33.9776H104.396C104.577 33.811 104.731 33.6121 104.856 33.381C104.985 33.15 105.093 32.8754 105.18 32.5572C105.271 32.239 105.346 31.8678 105.407 31.4435C105.468 31.0155 105.521 30.5269 105.566 29.9776L105.839 26.7219H111.771V33.9776H113.112V37.9663H111.452V35.4492H105.367V37.9663H103.685ZM106.214 33.9776H110.112V28.1765H107.362L107.18 29.9776C107.093 30.8943 106.983 31.6897 106.85 32.364C106.718 33.0344 106.505 33.5723 106.214 33.9776ZM118.373 35.6254C117.514 35.6254 116.773 35.4416 116.152 35.0742C115.534 34.703 115.057 34.1822 114.72 33.5117C114.387 32.8375 114.22 32.0477 114.22 31.1424C114.22 30.2485 114.387 29.4606 114.72 28.7788C115.057 28.0969 115.527 27.5647 116.129 27.1822C116.735 26.7996 117.443 26.6083 118.254 26.6083C118.747 26.6083 119.224 26.6897 119.686 26.8526C120.148 27.0155 120.563 27.2712 120.93 27.6197C121.298 27.9682 121.587 28.4208 121.8 28.9776C122.012 29.5307 122.118 30.203 122.118 30.9947V31.5969H115.18V30.3242H120.453C120.453 29.8772 120.362 29.4814 120.18 29.1367C119.998 28.7882 119.743 28.5136 119.413 28.3129C119.087 28.1121 118.705 28.0117 118.265 28.0117C117.788 28.0117 117.372 28.1291 117.015 28.364C116.663 28.5951 116.39 28.8981 116.197 29.2731C116.008 29.6443 115.913 30.0477 115.913 30.4833V31.4776C115.913 32.061 116.015 32.5572 116.22 32.9663C116.428 33.3754 116.718 33.6879 117.089 33.9038C117.461 34.1159 117.894 34.2219 118.39 34.2219C118.712 34.2219 119.006 34.1765 119.271 34.0856C119.536 33.9909 119.765 33.8507 119.959 33.6651C120.152 33.4795 120.3 33.2504 120.402 32.9776L122.01 33.2674C121.881 33.7409 121.65 34.1557 121.317 34.5117C120.987 34.864 120.572 35.1386 120.072 35.3356C119.576 35.5288 119.01 35.6254 118.373 35.6254ZM129.757 30.3526V31.8242H125.03V30.3526H129.757ZM125.507 26.7219V35.4492H123.843V26.7219H125.507ZM130.945 26.7219V35.4492H129.286V26.7219H130.945ZM134.336 29.7219H136.87C137.938 29.7219 138.76 29.9871 139.336 30.5174C139.912 31.0477 140.2 31.7314 140.2 32.5685C140.2 33.114 140.071 33.6045 139.813 34.0401C139.556 34.4757 139.179 34.8204 138.683 35.0742C138.186 35.3242 137.582 35.4492 136.87 35.4492H133.058V26.7219H134.722V33.9833H136.87C137.359 33.9833 137.76 33.8564 138.075 33.6026C138.389 33.3451 138.546 33.0174 138.546 32.6197C138.546 32.1992 138.389 31.8564 138.075 31.5913C137.76 31.3223 137.359 31.1879 136.87 31.1879H134.336V29.7219ZM144.155 33.8583L144.07 34.4776C144.013 34.9322 143.916 35.4057 143.78 35.8981C143.647 36.3943 143.509 36.8545 143.365 37.2788C143.225 37.703 143.109 38.0401 143.018 38.2901H141.814C141.863 38.0553 141.931 37.7371 142.018 37.3356C142.106 36.9379 142.191 36.4928 142.274 36.0004C142.357 35.5079 142.42 35.006 142.462 34.4947L142.518 33.8583H144.155ZM151.355 38.7219C151.101 38.7219 150.87 38.7011 150.661 38.6594C150.453 38.6216 150.298 38.5799 150.196 38.5344L150.605 37.1424C150.915 37.2257 151.192 37.2617 151.434 37.2504C151.677 37.239 151.891 37.1481 152.076 36.9776C152.266 36.8072 152.432 36.5288 152.576 36.1424L152.786 35.5629L149.593 26.7219H151.411L153.622 33.4947H153.713L155.923 26.7219H157.747L154.15 36.614C153.983 37.0685 153.771 37.453 153.514 37.7674C153.256 38.0856 152.949 38.3242 152.593 38.4833C152.237 38.6424 151.824 38.7219 151.355 38.7219ZM163.258 35.4492V26.7219H166.877C167.862 26.7219 168.642 26.9322 169.218 27.3526C169.794 27.7693 170.082 28.3356 170.082 29.0515C170.082 29.5629 169.919 29.9682 169.593 30.2674C169.267 30.5666 168.835 30.7674 168.297 30.8697C168.688 30.9151 169.046 31.0326 169.371 31.2219C169.697 31.4076 169.958 31.6576 170.155 31.9719C170.356 32.2863 170.457 32.6613 170.457 33.0969C170.457 33.5591 170.337 33.9682 170.099 34.3242C169.86 34.6765 169.513 34.953 169.059 35.1538C168.608 35.3507 168.064 35.4492 167.428 35.4492H163.258ZM164.854 34.0288H167.428C167.849 34.0288 168.178 33.9284 168.417 33.7276C168.655 33.5269 168.775 33.2541 168.775 32.9094C168.775 32.5041 168.655 32.186 168.417 31.9549C168.178 31.7201 167.849 31.6026 167.428 31.6026H164.854V34.0288ZM164.854 30.3583H166.894C167.212 30.3583 167.485 30.3129 167.712 30.2219C167.943 30.131 168.119 30.0022 168.241 29.8356C168.366 29.6651 168.428 29.4644 168.428 29.2333C168.428 28.8962 168.29 28.6329 168.013 28.4435C167.737 28.2541 167.358 28.1594 166.877 28.1594H164.854V30.3583ZM174.7 35.6424C174.147 35.6424 173.647 35.5401 173.2 35.3356C172.753 35.1272 172.399 34.8261 172.137 34.4322C171.88 34.0382 171.751 33.5553 171.751 32.9833C171.751 32.4909 171.846 32.0856 172.035 31.7674C172.225 31.4492 172.48 31.1973 172.802 31.0117C173.124 30.8261 173.484 30.686 173.882 30.5913C174.279 30.4966 174.685 30.4246 175.098 30.3754C175.62 30.3147 176.045 30.2655 176.37 30.2276C176.696 30.186 176.933 30.1197 177.081 30.0288C177.228 29.9379 177.302 29.7901 177.302 29.5856V29.5458C177.302 29.0496 177.162 28.6651 176.882 28.3924C176.605 28.1197 176.192 27.9833 175.643 27.9833C175.071 27.9833 174.62 28.1102 174.291 28.364C173.965 28.614 173.74 28.8924 173.615 29.1992L172.018 28.8356C172.208 28.3053 172.484 27.8772 172.848 27.5515C173.215 27.2219 173.637 26.9833 174.115 26.8356C174.592 26.6841 175.094 26.6083 175.62 26.6083C175.969 26.6083 176.338 26.65 176.728 26.7333C177.122 26.8129 177.49 26.9606 177.831 27.1765C178.175 27.3924 178.458 27.7011 178.677 28.1026C178.897 28.5004 179.007 29.0174 179.007 29.6538V35.4492H177.348V34.256H177.279C177.17 34.4757 177.005 34.6916 176.785 34.9038C176.565 35.1159 176.283 35.292 175.939 35.4322C175.594 35.5723 175.181 35.6424 174.7 35.6424ZM175.069 34.2788C175.539 34.2788 175.94 34.186 176.274 34.0004C176.611 33.8147 176.867 33.5723 177.041 33.2731C177.219 32.9701 177.308 32.6462 177.308 32.3015V31.1765C177.247 31.2371 177.13 31.2939 176.956 31.3469C176.785 31.3962 176.59 31.4397 176.37 31.4776C176.151 31.5117 175.937 31.5439 175.728 31.5742C175.52 31.6007 175.346 31.6235 175.206 31.6424C174.876 31.6841 174.575 31.7541 174.302 31.8526C174.033 31.9511 173.817 32.0932 173.654 32.2788C173.495 32.4606 173.416 32.703 173.416 33.006C173.416 33.4265 173.571 33.7447 173.882 33.9606C174.192 34.1727 174.588 34.2788 175.069 34.2788ZM184.786 35.6254C183.941 35.6254 183.214 35.4341 182.604 35.0515C181.998 34.6651 181.532 34.1329 181.206 33.4549C180.88 32.7769 180.717 32.0004 180.717 31.1254C180.717 30.239 180.884 29.4568 181.217 28.7788C181.551 28.0969 182.021 27.5647 182.627 27.1822C183.233 26.7996 183.947 26.6083 184.769 26.6083C185.432 26.6083 186.022 26.7314 186.541 26.9776C187.06 27.2201 187.479 27.561 187.797 28.0004C188.119 28.4397 188.31 28.953 188.371 29.5401H186.717C186.627 29.131 186.418 28.7788 186.092 28.4833C185.771 28.1879 185.339 28.0401 184.797 28.0401C184.324 28.0401 183.909 28.1651 183.553 28.4151C183.2 28.6613 182.926 29.0136 182.729 29.4719C182.532 29.9265 182.433 30.4644 182.433 31.0856C182.433 31.7219 182.53 32.2712 182.723 32.7333C182.916 33.1954 183.189 33.5534 183.541 33.8072C183.897 34.061 184.316 34.1879 184.797 34.1879C185.119 34.1879 185.411 34.1291 185.672 34.0117C185.937 33.8905 186.159 33.7182 186.337 33.4947C186.519 33.2712 186.646 33.0022 186.717 32.6879H188.371C188.31 33.2522 188.127 33.756 187.82 34.1992C187.513 34.6424 187.102 34.9909 186.587 35.2447C186.075 35.4985 185.475 35.6254 184.786 35.6254ZM197.863 35.6254C197.004 35.6254 196.263 35.4416 195.642 35.0742C195.024 34.703 194.547 34.1822 194.21 33.5117C193.877 32.8375 193.71 32.0477 193.71 31.1424C193.71 30.2485 193.877 29.4606 194.21 28.7788C194.547 28.0969 195.017 27.5647 195.619 27.1822C196.225 26.7996 196.933 26.6083 197.744 26.6083C198.237 26.6083 198.714 26.6897 199.176 26.8526C199.638 27.0155 200.053 27.2712 200.42 27.6197C200.788 27.9682 201.077 28.4208 201.29 28.9776C201.502 29.5307 201.608 30.203 201.608 30.9947V31.5969H194.67V30.3242H199.943C199.943 29.8772 199.852 29.4814 199.67 29.1367C199.488 28.7882 199.233 28.5136 198.903 28.3129C198.577 28.1121 198.195 28.0117 197.755 28.0117C197.278 28.0117 196.862 28.1291 196.505 28.364C196.153 28.5951 195.88 28.8981 195.687 29.2731C195.498 29.6443 195.403 30.0477 195.403 30.4833V31.4776C195.403 32.061 195.505 32.5572 195.71 32.9663C195.918 33.3754 196.208 33.6879 196.579 33.9038C196.951 34.1159 197.384 34.2219 197.88 34.2219C198.202 34.2219 198.496 34.1765 198.761 34.0856C199.026 33.9909 199.255 33.8507 199.449 33.6651C199.642 33.4795 199.79 33.2504 199.892 32.9776L201.5 33.2674C201.371 33.7409 201.14 34.1557 200.807 34.5117C200.477 34.864 200.062 35.1386 199.562 35.3356C199.066 35.5288 198.5 35.6254 197.863 35.6254ZM207.009 35.6254C206.164 35.6254 205.437 35.4341 204.827 35.0515C204.221 34.6651 203.755 34.1329 203.429 33.4549C203.104 32.7769 202.941 32.0004 202.941 31.1254C202.941 30.239 203.107 29.4568 203.441 28.7788C203.774 28.0969 204.244 27.5647 204.85 27.1822C205.456 26.7996 206.17 26.6083 206.992 26.6083C207.655 26.6083 208.246 26.7314 208.764 26.9776C209.283 27.2201 209.702 27.561 210.02 28.0004C210.342 28.4397 210.533 28.953 210.594 29.5401H208.941C208.85 29.131 208.641 28.7788 208.316 28.4833C207.994 28.1879 207.562 28.0401 207.02 28.0401C206.547 28.0401 206.132 28.1651 205.776 28.4151C205.424 28.6613 205.149 29.0136 204.952 29.4719C204.755 29.9265 204.657 30.4644 204.657 31.0856C204.657 31.7219 204.753 32.2712 204.946 32.7333C205.139 33.1954 205.412 33.5534 205.764 33.8072C206.121 34.061 206.539 34.1879 207.02 34.1879C207.342 34.1879 207.634 34.1291 207.895 34.0117C208.16 33.8905 208.382 33.7182 208.56 33.4947C208.742 33.2712 208.869 33.0022 208.941 32.6879H210.594C210.533 33.2522 210.35 33.756 210.043 34.1992C209.736 34.6424 209.325 34.9909 208.81 35.2447C208.299 35.4985 207.698 35.6254 207.009 35.6254ZM211.59 28.1879V26.7219H218.954V28.1879H216.107V35.4492H214.448V28.1879H211.59ZM221.869 29.7219H224.403C225.471 29.7219 226.293 29.9871 226.869 30.5174C227.445 31.0477 227.733 31.7314 227.733 32.5685C227.733 33.114 227.604 33.6045 227.346 34.0401C227.089 34.4757 226.712 34.8204 226.216 35.0742C225.72 35.3242 225.115 35.4492 224.403 35.4492H220.591V26.7219H222.256V33.9833H224.403C224.892 33.9833 225.293 33.8564 225.608 33.6026C225.922 33.3451 226.079 33.0174 226.079 32.6197C226.079 32.1992 225.922 31.8564 225.608 31.5913C225.293 31.3223 224.892 31.1879 224.403 31.1879H221.869V29.7219ZM38.142 56.4492V47.7219H41.7614C42.7462 47.7219 43.5265 47.9322 44.1023 48.3526C44.678 48.7693 44.9659 49.3356 44.9659 50.0515C44.9659 50.5629 44.803 50.9682 44.4773 51.2674C44.1515 51.5666 43.7197 51.7674 43.1818 51.8697C43.572 51.9151 43.9299 52.0326 44.2557 52.2219C44.5814 52.4076 44.8428 52.6576 45.0398 52.9719C45.2405 53.2863 45.3409 53.6613 45.3409 54.0969C45.3409 54.5591 45.2216 54.9682 44.983 55.3242C44.7443 55.6765 44.3977 55.953 43.9432 56.1538C43.4924 56.3507 42.9489 56.4492 42.3125 56.4492H38.142ZM39.7386 55.0288H42.3125C42.733 55.0288 43.0625 54.9284 43.3011 54.7276C43.5398 54.5269 43.6591 54.2541 43.6591 53.9094C43.6591 53.5041 43.5398 53.186 43.3011 52.9549C43.0625 52.7201 42.733 52.6026 42.3125 52.6026H39.7386V55.0288ZM39.7386 51.3583H41.7784C42.0966 51.3583 42.3693 51.3129 42.5966 51.2219C42.8277 51.131 43.0038 51.0022 43.125 50.8356C43.25 50.6651 43.3125 50.4644 43.3125 50.2333C43.3125 49.8962 43.1742 49.6329 42.8977 49.4435C42.6212 49.2541 42.2424 49.1594 41.7614 49.1594H39.7386V51.3583ZM50.7207 56.6254C49.9025 56.6254 49.1885 56.4379 48.5786 56.0629C47.9688 55.6879 47.4953 55.1632 47.1582 54.489C46.8211 53.8147 46.6525 53.0269 46.6525 52.1254C46.6525 51.2201 46.8211 50.4284 47.1582 49.7504C47.4953 49.0723 47.9688 48.5458 48.5786 48.1708C49.1885 47.7958 49.9025 47.6083 50.7207 47.6083C51.5389 47.6083 52.2529 47.7958 52.8627 48.1708C53.4726 48.5458 53.9461 49.0723 54.2832 49.7504C54.6203 50.4284 54.7889 51.2201 54.7889 52.1254C54.7889 53.0269 54.6203 53.8147 54.2832 54.489C53.9461 55.1632 53.4726 55.6879 52.8627 56.0629C52.2529 56.4379 51.5389 56.6254 50.7207 56.6254ZM50.7264 55.1992C51.2567 55.1992 51.6961 55.0591 52.0445 54.7788C52.393 54.4985 52.6506 54.1254 52.8173 53.6594C52.9877 53.1935 53.073 52.6803 53.073 52.1197C53.073 51.5629 52.9877 51.0515 52.8173 50.5856C52.6506 50.1159 52.393 49.739 52.0445 49.4549C51.6961 49.1708 51.2567 49.0288 50.7264 49.0288C50.1923 49.0288 49.7491 49.1708 49.3968 49.4549C49.0483 49.739 48.7889 50.1159 48.6184 50.5856C48.4517 51.0515 48.3684 51.5629 48.3684 52.1197C48.3684 52.6803 48.4517 53.1935 48.6184 53.6594C48.7889 54.1254 49.0483 54.4985 49.3968 54.7788C49.7491 55.0591 50.1923 55.1992 50.7264 55.1992ZM56.5252 56.4492V47.7219H63.6445V56.4492H61.9797V49.1879H58.1786V56.4492H56.5252ZM65.7558 59.7219V47.7219H67.4149V49.1367H67.5569C67.6554 48.9549 67.7975 48.7447 67.9831 48.506C68.1687 48.2674 68.4263 48.0591 68.7558 47.881C69.0853 47.6992 69.5209 47.6083 70.0626 47.6083C70.7672 47.6083 71.3959 47.7863 71.949 48.1424C72.502 48.4985 72.9357 49.0117 73.2501 49.6822C73.5683 50.3526 73.7274 51.1594 73.7274 52.1026C73.7274 53.0458 73.5702 53.8545 73.2558 54.5288C72.9414 55.1992 72.5096 55.7163 71.9603 56.0799C71.4111 56.4397 70.7842 56.6197 70.0797 56.6197C69.5494 56.6197 69.1156 56.5307 68.7785 56.3526C68.4452 56.1746 68.1838 55.9663 67.9944 55.7276C67.805 55.489 67.6592 55.2769 67.5569 55.0913H67.4547V59.7219H65.7558ZM67.4206 52.0856C67.4206 52.6992 67.5096 53.2371 67.6876 53.6992C67.8656 54.1613 68.1232 54.5231 68.4603 54.7844C68.7975 55.042 69.2103 55.1708 69.699 55.1708C70.2066 55.1708 70.6308 55.0363 70.9717 54.7674C71.3126 54.4947 71.5702 54.1254 71.7444 53.6594C71.9225 53.1935 72.0115 52.6689 72.0115 52.0856C72.0115 51.5098 71.9244 50.9928 71.7501 50.5344C71.5797 50.0761 71.3221 49.7144 70.9774 49.4492C70.6365 49.1841 70.2103 49.0515 69.699 49.0515C69.2066 49.0515 68.7899 49.1784 68.449 49.4322C68.1119 49.686 67.8562 50.0401 67.6819 50.4947C67.5077 50.9492 67.4206 51.4795 67.4206 52.0856ZM79.1469 56.6254C78.3288 56.6254 77.6147 56.4379 77.0049 56.0629C76.395 55.6879 75.9216 55.1632 75.5844 54.489C75.2473 53.8147 75.0788 53.0269 75.0788 52.1254C75.0788 51.2201 75.2473 50.4284 75.5844 49.7504C75.9216 49.0723 76.395 48.5458 77.0049 48.1708C77.6147 47.7958 78.3288 47.6083 79.1469 47.6083C79.9651 47.6083 80.6791 47.7958 81.289 48.1708C81.8988 48.5458 82.3723 49.0723 82.7094 49.7504C83.0466 50.4284 83.2151 51.2201 83.2151 52.1254C83.2151 53.0269 83.0466 53.8147 82.7094 54.489C82.3723 55.1632 81.8988 55.6879 81.289 56.0629C80.6791 56.4379 79.9651 56.6254 79.1469 56.6254ZM79.1526 55.1992C79.6829 55.1992 80.1223 55.0591 80.4708 54.7788C80.8193 54.4985 81.0769 54.1254 81.2435 53.6594C81.414 53.1935 81.4992 52.6803 81.4992 52.1197C81.4992 51.5629 81.414 51.0515 81.2435 50.5856C81.0769 50.1159 80.8193 49.739 80.4708 49.4549C80.1223 49.1708 79.6829 49.0288 79.1526 49.0288C78.6185 49.0288 78.1753 49.1708 77.8231 49.4549C77.4746 49.739 77.2151 50.1159 77.0447 50.5856C76.878 51.0515 76.7947 51.5629 76.7947 52.1197C76.7947 52.6803 76.878 53.1935 77.0447 53.6594C77.2151 54.1254 77.4746 54.4985 77.8231 54.7788C78.1753 55.0591 78.6185 55.1992 79.1526 55.1992ZM88.6276 56.6254C87.7829 56.6254 87.0556 56.4341 86.4457 56.0515C85.8397 55.6651 85.3738 55.1329 85.048 54.4549C84.7223 53.7769 84.5594 53.0004 84.5594 52.1254C84.5594 51.239 84.726 50.4568 85.0594 49.7788C85.3927 49.0969 85.8624 48.5647 86.4685 48.1822C87.0745 47.7996 87.7885 47.6083 88.6105 47.6083C89.2734 47.6083 89.8643 47.7314 90.3832 47.9776C90.9022 48.2201 91.3207 48.561 91.6389 49.0004C91.9609 49.4397 92.1522 49.953 92.2128 50.5401H90.5594C90.4685 50.131 90.2601 49.7788 89.9344 49.4833C89.6124 49.1879 89.1806 49.0401 88.6389 49.0401C88.1654 49.0401 87.7507 49.1651 87.3946 49.4151C87.0423 49.6613 86.7677 50.0136 86.5707 50.4719C86.3738 50.9265 86.2753 51.4644 86.2753 52.0856C86.2753 52.7219 86.3719 53.2712 86.5651 53.7333C86.7582 54.1954 87.031 54.5534 87.3832 54.8072C87.7393 55.061 88.1579 55.1879 88.6389 55.1879C88.9609 55.1879 89.2526 55.1291 89.5139 55.0117C89.7791 54.8905 90.0007 54.7182 90.1787 54.4947C90.3605 54.2712 90.4874 54.0022 90.5594 53.6879H92.2128C92.1522 54.2522 91.9685 54.756 91.6616 55.1992C91.3548 55.6424 90.9438 55.9909 90.4287 56.2447C89.9173 56.4985 89.317 56.6254 88.6276 56.6254ZM95.7275 53.1026V52.9947C95.7351 52.2901 95.8052 51.7295 95.9377 51.3129C96.0741 50.8962 96.2673 50.5591 96.5173 50.3015C96.7673 50.0439 97.0684 49.8091 97.4207 49.5969C97.648 49.453 97.8525 49.292 98.0343 49.114C98.2161 48.936 98.3601 48.7314 98.4661 48.5004C98.5722 48.2693 98.6252 48.0136 98.6252 47.7333C98.6252 47.3962 98.5457 47.1045 98.3866 46.8583C98.2275 46.6121 98.0154 46.4227 97.7502 46.2901C97.4889 46.1538 97.1972 46.0856 96.8752 46.0856C96.5836 46.0856 96.3052 46.1462 96.04 46.2674C95.7748 46.3886 95.5552 46.578 95.3809 46.8356C95.2067 47.0894 95.1063 47.417 95.0798 47.8185H93.3525C93.379 47.1367 93.5514 46.561 93.8695 46.0913C94.1877 45.6178 94.6082 45.2598 95.1309 45.0174C95.6574 44.775 96.2389 44.6538 96.8752 44.6538C97.5722 44.6538 98.182 44.7844 98.7048 45.0458C99.2275 45.3034 99.6328 45.6651 99.9207 46.131C100.212 46.5932 100.358 47.1329 100.358 47.7504C100.358 48.1746 100.292 48.5572 100.159 48.8981C100.027 49.2352 99.8373 49.5363 99.5911 49.8015C99.3487 50.0666 99.057 50.3015 98.7161 50.506C98.3942 50.7068 98.1328 50.9151 97.932 51.131C97.7351 51.3469 97.5911 51.6026 97.5002 51.8981C97.4093 52.1935 97.3601 52.5591 97.3525 52.9947V53.1026H95.7275ZM96.5855 56.5572C96.2748 56.5572 96.0078 56.4473 95.7843 56.2276C95.5608 56.0041 95.4491 55.7352 95.4491 55.4208C95.4491 55.1102 95.5608 54.8451 95.7843 54.6254C96.0078 54.4019 96.2748 54.2901 96.5855 54.2901C96.8923 54.2901 97.1574 54.4019 97.3809 54.6254C97.6082 54.8451 97.7218 55.1102 97.7218 55.4208C97.7218 55.6291 97.6688 55.8204 97.5627 55.9947C97.4605 56.1651 97.3241 56.3015 97.1536 56.4038C96.9832 56.506 96.7938 56.5572 96.5855 56.5572Z" fill="#191C1F"/>
</g>
<defs>
<filter id="filter0_d_1_6" x="-25" y="-9.55078" width="308" height="127" filterUnits="userSpaceOnUse" color-interpolation-filters="sRGB">
<feFlood flood-opacity="0" result="BackgroundImageFix"/>
<feColorMatrix in="SourceAlpha" type="matrix" values="0 0 0 0 0 0 0 0 0 0 0 0 0 0 0 0 0 0 127 0" result="hardAlpha"/>
<feOffset dy="15"/>
<feGaussianBlur stdDeviation="12.5"/>
<feComposite in2="hardAlpha" operator="out"/>
<feColorMatrix type="matrix" values="0 0 0 0 0.0635069 0 0 0 0 0.165998 0 0 0 0 0.245833 0 0 0 0.05 0"/>
<feBlend mode="normal" in2="BackgroundImageFix" result="effect1_dropShadow_1_6"/>
<feBlend mode="normal" in="SourceGraphic" in2="effect1_dropShadow_1_6" result="shape"/>
</filter>
</defs>
</svg>
