<svg width="390" height="60" viewBox="0 0 390 60" fill="none" xmlns="http://www.w3.org/2000/svg">
<path d="M289.636 59.4492H28.3257C12.7058 59.4492 0 46.2167 0 29.9492C0 13.6817 12.7058 0.449219 28.3257 0.449219H289.636H322.275H349.318C364.938 0.449219 377.644 13.6817 377.644 29.9492C377.644 42.6961 380.675 50.1015 383.822 54.2291C386.969 58.478 390 59.4492 390 59.4492H322.275H289.636Z" fill="#AC146F"/>
<path d="M43.1705 35.6098C42.3902 35.6098 41.6932 35.4753 41.0795 35.2064C40.4697 34.9374 39.9867 34.5643 39.6307 34.087C39.2784 33.606 39.089 33.0492 39.0625 32.4166H40.8466C40.8693 32.7613 40.9848 33.0605 41.1932 33.3143C41.4053 33.5643 41.6818 33.7575 42.0227 33.8939C42.3636 34.0302 42.7424 34.0984 43.1591 34.0984C43.6174 34.0984 44.0227 34.0189 44.375 33.8598C44.7311 33.7007 45.0095 33.4791 45.2102 33.195C45.411 32.9071 45.5114 32.5757 45.5114 32.2007C45.5114 31.8105 45.411 31.4677 45.2102 31.1723C45.0133 30.873 44.7235 30.6382 44.3409 30.4677C43.9621 30.2973 43.5038 30.212 42.9659 30.212H41.983V28.7802H42.9659C43.3977 28.7802 43.7765 28.7026 44.1023 28.5473C44.4318 28.392 44.6894 28.1761 44.875 27.8995C45.0606 27.6192 45.1534 27.2916 45.1534 26.9166C45.1534 26.5567 45.072 26.2442 44.9091 25.9791C44.75 25.7102 44.5227 25.4999 44.2273 25.3484C43.9356 25.1969 43.5909 25.1211 43.1932 25.1211C42.8144 25.1211 42.4602 25.1912 42.1307 25.3314C41.8049 25.4677 41.5398 25.6647 41.3352 25.9223C41.1307 26.1761 41.0208 26.481 41.0057 26.837H39.3068C39.3258 26.2083 39.5114 25.6552 39.8636 25.178C40.2197 24.7007 40.6894 24.3276 41.2727 24.0586C41.8561 23.7897 42.5038 23.6552 43.2159 23.6552C43.9621 23.6552 44.6061 23.8011 45.1477 24.0927C45.6932 24.3806 46.1136 24.7651 46.4091 25.2461C46.7083 25.7272 46.8561 26.2537 46.8523 26.8257C46.8561 27.4772 46.6742 28.0302 46.3068 28.4848C45.9432 28.9393 45.4583 29.2442 44.8523 29.3995V29.4905C45.625 29.6079 46.2235 29.9147 46.6477 30.4109C47.0758 30.9071 47.2879 31.5227 47.2841 32.2575C47.2879 32.8977 47.1098 33.4715 46.75 33.9791C46.3939 34.4867 45.9072 34.8863 45.2898 35.178C44.6723 35.4658 43.9659 35.6098 43.1705 35.6098ZM48.4423 37.9677V33.9791H49.1525C49.3343 33.8124 49.4877 33.6136 49.6127 33.3825C49.7415 33.1514 49.8495 32.8768 49.9366 32.5586C50.0275 32.2405 50.1033 31.8692 50.1639 31.445C50.2245 31.017 50.2775 30.5283 50.323 29.9791L50.5957 26.7234H56.5275V33.9791H57.8684V37.9677H56.2093V35.4507H50.1241V37.9677H48.4423ZM50.9707 33.9791H54.8684V28.178H52.1184L51.9366 29.9791C51.8495 30.8958 51.7396 31.6912 51.607 32.3655C51.4745 33.0359 51.2623 33.5738 50.9707 33.9791ZM59.3689 38.7234V26.7234H61.028V28.1382H61.1701C61.2685 27.9564 61.4106 27.7461 61.5962 27.5075C61.7818 27.2689 62.0394 27.0605 62.3689 26.8825C62.6985 26.7007 63.1341 26.6098 63.6757 26.6098C64.3803 26.6098 65.0091 26.7878 65.5621 27.1439C66.1151 27.4999 66.5488 28.0132 66.8632 28.6836C67.1814 29.3541 67.3405 30.1609 67.3405 31.1041C67.3405 32.0473 67.1833 32.856 66.8689 33.5302C66.5545 34.2007 66.1227 34.7177 65.5735 35.0814C65.0242 35.4412 64.3973 35.6211 63.6928 35.6211C63.1625 35.6211 62.7288 35.5321 62.3916 35.3541C62.0583 35.1761 61.797 34.9677 61.6076 34.7291C61.4182 34.4905 61.2723 34.2783 61.1701 34.0927H61.0678V38.7234H59.3689ZM61.0337 31.087C61.0337 31.7007 61.1227 32.2386 61.3007 32.7007C61.4788 33.1628 61.7363 33.5245 62.0735 33.7859C62.4106 34.0435 62.8235 34.1723 63.3121 34.1723C63.8197 34.1723 64.2439 34.0378 64.5848 33.7689C64.9257 33.4961 65.1833 33.1268 65.3576 32.6609C65.5356 32.195 65.6246 31.6704 65.6246 31.087C65.6246 30.5113 65.5375 29.9942 65.3632 29.5359C65.1928 29.0776 64.9352 28.7158 64.5905 28.4507C64.2496 28.1855 63.8235 28.053 63.3121 28.053C62.8197 28.053 62.403 28.1799 62.0621 28.4336C61.725 28.6874 61.4693 29.0416 61.2951 29.4961C61.1208 29.9507 61.0337 30.481 61.0337 31.087ZM71.6237 35.6439C71.0707 35.6439 70.5707 35.5416 70.1237 35.337C69.6767 35.1287 69.3226 34.8276 69.0612 34.4336C68.8036 34.0397 68.6748 33.5567 68.6748 32.9848C68.6748 32.4924 68.7695 32.087 68.9589 31.7689C69.1483 31.4507 69.404 31.1988 69.726 31.0132C70.0479 30.8276 70.4078 30.6874 70.8055 30.5927C71.2032 30.498 71.6085 30.4261 72.0214 30.3768C72.5441 30.3162 72.9684 30.267 73.2941 30.2291C73.6199 30.1874 73.8566 30.1211 74.0044 30.0302C74.1521 29.9393 74.226 29.7916 74.226 29.587V29.5473C74.226 29.0511 74.0858 28.6666 73.8055 28.3939C73.529 28.1211 73.1161 27.9848 72.5669 27.9848C71.9949 27.9848 71.5441 28.1117 71.2146 28.3655C70.8888 28.6155 70.6635 28.8939 70.5385 29.2007L68.9419 28.837C69.1313 28.3067 69.4078 27.8787 69.7714 27.553C70.1388 27.2234 70.5612 26.9848 71.0385 26.837C71.5157 26.6855 72.0176 26.6098 72.5441 26.6098C72.8926 26.6098 73.262 26.6514 73.6521 26.7348C74.046 26.8143 74.4135 26.962 74.7544 27.178C75.0991 27.3939 75.3813 27.7026 75.601 28.1041C75.8207 28.5018 75.9305 29.0189 75.9305 29.6552V35.4507H74.2714V34.2575H74.2032C74.0934 34.4772 73.9286 34.6931 73.7089 34.9052C73.4892 35.1174 73.207 35.2935 72.8623 35.4336C72.5176 35.5738 72.1048 35.6439 71.6237 35.6439ZM71.993 34.2802C72.4627 34.2802 72.8642 34.1874 73.1976 34.0018C73.5347 33.8162 73.7904 33.5738 73.9646 33.2745C74.1426 32.9715 74.2316 32.6477 74.2316 32.303V31.178C74.171 31.2386 74.0536 31.2954 73.8794 31.3484C73.7089 31.3977 73.5138 31.4412 73.2941 31.4791C73.0745 31.5132 72.8604 31.5454 72.6521 31.5757C72.4438 31.6022 72.2695 31.6249 72.1294 31.6439C71.7998 31.6855 71.4987 31.7556 71.226 31.8541C70.957 31.9526 70.7411 32.0946 70.5782 32.2802C70.4191 32.462 70.3396 32.7045 70.3396 33.0075C70.3396 33.428 70.4949 33.7461 70.8055 33.962C71.1161 34.1742 71.512 34.2802 71.993 34.2802ZM78.0333 35.4507V26.7234H81.6526C82.6375 26.7234 83.4178 26.9336 83.9935 27.3541C84.5693 27.7708 84.8572 28.337 84.8572 29.053C84.8572 29.5643 84.6943 29.9696 84.3685 30.2689C84.0428 30.5681 83.6109 30.7689 83.0731 30.8711C83.4632 30.9166 83.8212 31.034 84.1469 31.2234C84.4727 31.409 84.7341 31.659 84.931 31.9734C85.1318 32.2878 85.2322 32.6628 85.2322 33.0984C85.2322 33.5605 85.1128 33.9696 84.8742 34.3257C84.6356 34.678 84.289 34.9545 83.8344 35.1552C83.3837 35.3522 82.8401 35.4507 82.2038 35.4507H78.0333ZM79.6299 34.0302H82.2038C82.6242 34.0302 82.9538 33.9299 83.1924 33.7291C83.431 33.5283 83.5503 33.2556 83.5503 32.9109C83.5503 32.5056 83.431 32.1874 83.1924 31.9564C82.9538 31.7215 82.6242 31.6041 82.2038 31.6041H79.6299V34.0302ZM79.6299 30.3598H81.6697C81.9878 30.3598 82.2606 30.3143 82.4878 30.2234C82.7189 30.1325 82.895 30.0037 83.0163 29.837C83.1413 29.6666 83.2038 29.4658 83.2038 29.2348C83.2038 28.8977 83.0655 28.6344 82.789 28.445C82.5125 28.2556 82.1337 28.1609 81.6526 28.1609H79.6299V30.3598ZM90.6119 35.6268C89.7672 35.6268 89.04 35.4355 88.4301 35.053C87.8241 34.6666 87.3581 34.1344 87.0324 33.4564C86.7066 32.7783 86.5438 32.0018 86.5438 31.1268C86.5438 30.2405 86.7104 29.4583 87.0438 28.7802C87.3771 28.0984 87.8468 27.5662 88.4528 27.1836C89.0589 26.8011 89.7729 26.6098 90.5949 26.6098C91.2578 26.6098 91.8487 26.7329 92.3676 26.9791C92.8866 27.2215 93.3051 27.5624 93.6233 28.0018C93.9453 28.4412 94.1366 28.9545 94.1972 29.5416H92.5438C92.4528 29.1325 92.2445 28.7802 91.9188 28.4848C91.5968 28.1893 91.165 28.0416 90.6233 28.0416C90.1498 28.0416 89.735 28.1666 89.379 28.4166C89.0267 28.6628 88.7521 29.0151 88.5551 29.4734C88.3581 29.928 88.2597 30.4658 88.2597 31.087C88.2597 31.7234 88.3563 32.2727 88.5494 32.7348C88.7426 33.1969 89.0153 33.5549 89.3676 33.8086C89.7237 34.0624 90.1422 34.1893 90.6233 34.1893C90.9453 34.1893 91.2369 34.1306 91.4983 34.0132C91.7634 33.892 91.985 33.7196 92.1631 33.4961C92.3449 33.2727 92.4718 33.0037 92.5438 32.6893H94.1972C94.1366 33.2537 93.9528 33.7575 93.646 34.2007C93.3392 34.6439 92.9282 34.9924 92.4131 35.2461C91.9017 35.4999 91.3013 35.6268 90.6119 35.6268ZM95.1934 28.1893V26.7234H102.557V28.1893H99.7105V35.4507H98.0514V28.1893H95.1934ZM104.194 35.4507V26.7234H107.813C108.798 26.7234 109.578 26.9336 110.154 27.3541C110.73 27.7708 111.018 28.337 111.018 29.053C111.018 29.5643 110.855 29.9696 110.529 30.2689C110.203 30.5681 109.772 30.7689 109.234 30.8711C109.624 30.9166 109.982 31.034 110.308 31.2234C110.633 31.409 110.895 31.659 111.092 31.9734C111.292 32.2878 111.393 32.6628 111.393 33.0984C111.393 33.5605 111.273 33.9696 111.035 34.3257C110.796 34.678 110.45 34.9545 109.995 35.1552C109.544 35.3522 109.001 35.4507 108.364 35.4507H104.194ZM105.791 34.0302H108.364C108.785 34.0302 109.114 33.9299 109.353 33.7291C109.592 33.5283 109.711 33.2556 109.711 32.9109C109.711 32.5056 109.592 32.1874 109.353 31.9564C109.114 31.7215 108.785 31.6041 108.364 31.6041H105.791V34.0302ZM105.791 30.3598H107.83C108.148 30.3598 108.421 30.3143 108.648 30.2234C108.88 30.1325 109.056 30.0037 109.177 29.837C109.302 29.6666 109.364 29.4658 109.364 29.2348C109.364 28.8977 109.226 28.6344 108.95 28.445C108.673 28.2556 108.294 28.1609 107.813 28.1609H105.791V30.3598ZM114.17 38.7234C113.916 38.7234 113.685 38.7026 113.477 38.6609C113.269 38.623 113.113 38.5814 113.011 38.5359L113.42 37.1439C113.731 37.2272 114.007 37.2632 114.25 37.2518C114.492 37.2405 114.706 37.1495 114.892 36.9791C115.081 36.8086 115.248 36.5302 115.392 36.1439L115.602 35.5643L112.409 26.7234H114.227L116.437 33.4961H116.528L118.738 26.7234H120.562L116.966 36.6155C116.799 37.07 116.587 37.4545 116.329 37.7689C116.072 38.087 115.765 38.3257 115.409 38.4848C115.053 38.6439 114.64 38.7234 114.17 38.7234ZM123.664 33.07L127.51 26.7234H129.34V35.4507H127.675V29.0984L123.846 35.4507H121.999V26.7234H123.664V33.07ZM126.783 23.7689H128.181C128.181 24.409 127.953 24.9299 127.499 25.3314C127.048 25.7291 126.438 25.928 125.669 25.928C124.904 25.928 124.296 25.7291 123.846 25.3314C123.395 24.9299 123.169 24.409 123.169 23.7689H124.561C124.561 24.053 124.645 24.3048 124.811 24.5245C124.978 24.7405 125.264 24.8484 125.669 24.8484C126.067 24.8484 126.351 24.7405 126.522 24.5245C126.696 24.3086 126.783 24.0567 126.783 23.7689ZM130.382 28.1893V26.7234H137.745V28.1893H134.899V35.4507H133.239V28.1893H130.382ZM142.737 35.6268C141.877 35.6268 141.137 35.4431 140.516 35.0757C139.898 34.7045 139.421 34.1836 139.084 33.5132C138.75 32.8389 138.584 32.0492 138.584 31.1439C138.584 30.2499 138.75 29.462 139.084 28.7802C139.421 28.0984 139.891 27.5662 140.493 27.1836C141.099 26.8011 141.807 26.6098 142.618 26.6098C143.11 26.6098 143.588 26.6912 144.05 26.8541C144.512 27.017 144.927 27.2727 145.294 27.6211C145.661 27.9696 145.951 28.4223 146.163 28.9791C146.375 29.5321 146.481 30.2045 146.481 30.9961V31.5984H139.544V30.3257H144.817C144.817 29.8787 144.726 29.4829 144.544 29.1382C144.362 28.7897 144.106 28.5151 143.777 28.3143C143.451 28.1136 143.069 28.0132 142.629 28.0132C142.152 28.0132 141.735 28.1306 141.379 28.3655C141.027 28.5965 140.754 28.8995 140.561 29.2745C140.372 29.6458 140.277 30.0492 140.277 30.4848V31.4791C140.277 32.0624 140.379 32.5586 140.584 32.9677C140.792 33.3768 141.082 33.6893 141.453 33.9052C141.824 34.1174 142.258 34.2234 142.754 34.2234C143.076 34.2234 143.37 34.178 143.635 34.087C143.9 33.9924 144.129 33.8522 144.322 33.6666C144.516 33.481 144.663 33.2518 144.766 32.9791L146.374 33.2689C146.245 33.7424 146.014 34.1571 145.68 34.5132C145.351 34.8655 144.936 35.1401 144.436 35.337C143.94 35.5302 143.374 35.6268 142.737 35.6268ZM150.417 33.8598L150.331 34.4791C150.275 34.9336 150.178 35.4071 150.042 35.8995C149.909 36.3958 149.771 36.856 149.627 37.2802C149.487 37.7045 149.371 38.0416 149.28 38.2916H148.076C148.125 38.0567 148.193 37.7386 148.28 37.337C148.367 36.9393 148.453 36.4942 148.536 36.0018C148.619 35.5094 148.682 35.0075 148.723 34.4961L148.78 33.8598H150.417ZM156.543 35.4507V26.7234H158.242V30.3825H159.06L161.94 26.7234H164.043L160.662 30.9677L164.082 35.4507H161.974L159.344 31.962H158.242V35.4507H156.543ZM168.559 35.6268C167.741 35.6268 167.027 35.4393 166.417 35.0643C165.807 34.6893 165.333 34.1647 164.996 33.4905C164.659 32.8162 164.491 32.0283 164.491 31.1268C164.491 30.2215 164.659 29.4298 164.996 28.7518C165.333 28.0738 165.807 27.5473 166.417 27.1723C167.027 26.7973 167.741 26.6098 168.559 26.6098C169.377 26.6098 170.091 26.7973 170.701 27.1723C171.311 27.5473 171.784 28.0738 172.121 28.7518C172.458 29.4298 172.627 30.2215 172.627 31.1268C172.627 32.0283 172.458 32.8162 172.121 33.4905C171.784 34.1647 171.311 34.6893 170.701 35.0643C170.091 35.4393 169.377 35.6268 168.559 35.6268ZM168.564 34.2007C169.095 34.2007 169.534 34.0605 169.883 33.7802C170.231 33.4999 170.489 33.1268 170.655 32.6609C170.826 32.195 170.911 31.6817 170.911 31.1211C170.911 30.5643 170.826 30.053 170.655 29.587C170.489 29.1174 170.231 28.7405 169.883 28.4564C169.534 28.1723 169.095 28.0302 168.564 28.0302C168.03 28.0302 167.587 28.1723 167.235 28.4564C166.886 28.7405 166.627 29.1174 166.457 29.587C166.29 30.053 166.207 30.5643 166.207 31.1211C166.207 31.6817 166.29 32.195 166.457 32.6609C166.627 33.1268 166.886 33.4999 167.235 33.7802C167.587 34.0605 168.03 34.2007 168.564 34.2007ZM180.278 30.3541V31.8257H175.551V30.3541H180.278ZM176.028 26.7234V35.4507H174.363V26.7234H176.028ZM181.466 26.7234V35.4507H179.806V26.7234H181.466ZM187.34 35.6268C186.48 35.6268 185.739 35.4431 185.118 35.0757C184.501 34.7045 184.023 34.1836 183.686 33.5132C183.353 32.8389 183.186 32.0492 183.186 31.1439C183.186 30.2499 183.353 29.462 183.686 28.7802C184.023 28.0984 184.493 27.5662 185.095 27.1836C185.701 26.8011 186.41 26.6098 187.22 26.6098C187.713 26.6098 188.19 26.6912 188.652 26.8541C189.114 27.017 189.529 27.2727 189.896 27.6211C190.264 27.9696 190.554 28.4223 190.766 28.9791C190.978 29.5321 191.084 30.2045 191.084 30.9961V31.5984H184.146V30.3257H189.419C189.419 29.8787 189.328 29.4829 189.146 29.1382C188.965 28.7897 188.709 28.5151 188.379 28.3143C188.054 28.1136 187.671 28.0132 187.232 28.0132C186.754 28.0132 186.338 28.1306 185.982 28.3655C185.629 28.5965 185.357 28.8995 185.164 29.2745C184.974 29.6458 184.879 30.0492 184.879 30.4848V31.4791C184.879 32.0624 184.982 32.5586 185.186 32.9677C185.395 33.3768 185.684 33.6893 186.056 33.9052C186.427 34.1174 186.86 34.2234 187.357 34.2234C187.679 34.2234 187.972 34.178 188.237 34.087C188.503 33.9924 188.732 33.8522 188.925 33.6666C189.118 33.481 189.266 33.2518 189.368 32.9791L190.976 33.2689C190.847 33.7424 190.616 34.1571 190.283 34.5132C189.953 34.8655 189.539 35.1401 189.039 35.337C188.542 35.5302 187.976 35.6268 187.34 35.6268ZM199.815 26.7234V35.4507H198.156V26.7234H199.815ZM199.093 30.7745V32.2405C198.832 32.3465 198.555 32.4412 198.263 32.5245C197.972 32.6041 197.665 32.6666 197.343 32.712C197.021 32.7575 196.686 32.7802 196.337 32.7802C195.258 32.7802 194.4 32.517 193.763 31.9905C193.127 31.4602 192.809 30.6495 192.809 29.5586V26.7064H194.462V29.5586C194.462 29.9715 194.538 30.3067 194.69 30.5643C194.841 30.8219 195.057 31.0113 195.337 31.1325C195.618 31.2537 195.951 31.3143 196.337 31.3143C196.849 31.3143 197.32 31.267 197.752 31.1723C198.188 31.0738 198.635 30.9412 199.093 30.7745ZM207.829 30.3541V31.8257H203.102V30.3541H207.829ZM203.579 26.7234V35.4507H201.915V26.7234H203.579ZM209.017 26.7234V35.4507H207.358V26.7234H209.017ZM214.806 35.6268C213.988 35.6268 213.273 35.4393 212.664 35.0643C212.054 34.6893 211.58 34.1647 211.243 33.4905C210.906 32.8162 210.738 32.0283 210.738 31.1268C210.738 30.2215 210.906 29.4298 211.243 28.7518C211.58 28.0738 212.054 27.5473 212.664 27.1723C213.273 26.7973 213.988 26.6098 214.806 26.6098C215.624 26.6098 216.338 26.7973 216.948 27.1723C217.558 27.5473 218.031 28.0738 218.368 28.7518C218.705 29.4298 218.874 30.2215 218.874 31.1268C218.874 32.0283 218.705 32.8162 218.368 33.4905C218.031 34.1647 217.558 34.6893 216.948 35.0643C216.338 35.4393 215.624 35.6268 214.806 35.6268ZM214.811 34.2007C215.342 34.2007 215.781 34.0605 216.13 33.7802C216.478 33.4999 216.736 33.1268 216.902 32.6609C217.073 32.195 217.158 31.6817 217.158 31.1211C217.158 30.5643 217.073 30.053 216.902 29.587C216.736 29.1174 216.478 28.7405 216.13 28.4564C215.781 28.1723 215.342 28.0302 214.811 28.0302C214.277 28.0302 213.834 28.1723 213.482 28.4564C213.133 28.7405 212.874 29.1174 212.703 29.587C212.537 30.053 212.453 30.5643 212.453 31.1211C212.453 31.6817 212.537 32.195 212.703 32.6609C212.874 33.1268 213.133 33.4999 213.482 33.7802C213.834 34.0605 214.277 34.2007 214.811 34.2007ZM222.82 33.8598L222.735 34.4791C222.678 34.9336 222.582 35.4071 222.445 35.8995C222.313 36.3958 222.175 36.856 222.031 37.2802C221.89 37.7045 221.775 38.0416 221.684 38.2916H220.479C220.529 38.0567 220.597 37.7386 220.684 37.337C220.771 36.9393 220.856 36.4942 220.94 36.0018C221.023 35.5094 221.086 35.0075 221.127 34.4961L221.184 33.8598H222.82ZM233.844 33.3484L236.662 26.7234H238.128L234.475 35.4507H233.213L229.634 26.7234H231.083L233.844 33.3484ZM230.611 26.7234V35.4507H228.946V26.7234H230.611ZM237.123 35.4507V26.7234H238.776V35.4507H237.123ZM244.556 35.6268C243.738 35.6268 243.024 35.4393 242.414 35.0643C241.804 34.6893 241.331 34.1647 240.994 33.4905C240.657 32.8162 240.488 32.0283 240.488 31.1268C240.488 30.2215 240.657 29.4298 240.994 28.7518C241.331 28.0738 241.804 27.5473 242.414 27.1723C243.024 26.7973 243.738 26.6098 244.556 26.6098C245.374 26.6098 246.089 26.7973 246.698 27.1723C247.308 27.5473 247.782 28.0738 248.119 28.7518C248.456 29.4298 248.624 30.2215 248.624 31.1268C248.624 32.0283 248.456 32.8162 248.119 33.4905C247.782 34.1647 247.308 34.6893 246.698 35.0643C246.089 35.4393 245.374 35.6268 244.556 35.6268ZM244.562 34.2007C245.092 34.2007 245.532 34.0605 245.88 33.7802C246.229 33.4999 246.486 33.1268 246.653 32.6609C246.823 32.195 246.909 31.6817 246.909 31.1211C246.909 30.5643 246.823 30.053 246.653 29.587C246.486 29.1174 246.229 28.7405 245.88 28.4564C245.532 28.1723 245.092 28.0302 244.562 28.0302C244.028 28.0302 243.585 28.1723 243.232 28.4564C242.884 28.7405 242.624 29.1174 242.454 29.587C242.287 30.053 242.204 30.5643 242.204 31.1211C242.204 31.6817 242.287 32.195 242.454 32.6609C242.624 33.1268 242.884 33.4999 243.232 33.7802C243.585 34.0605 244.028 34.2007 244.562 34.2007ZM252.026 33.07L255.872 26.7234H257.702V35.4507H256.037V29.0984L252.207 35.4507H250.361V26.7234H252.026V33.07ZM255.145 23.7689H256.543C256.543 24.409 256.315 24.9299 255.861 25.3314C255.41 25.7291 254.8 25.928 254.031 25.928C253.266 25.928 252.658 25.7291 252.207 25.3314C251.757 24.9299 251.531 24.409 251.531 23.7689H252.923C252.923 24.053 253.007 24.3048 253.173 24.5245C253.34 24.7405 253.626 24.8484 254.031 24.8484C254.429 24.8484 254.713 24.7405 254.884 24.5245C255.058 24.3086 255.145 24.0567 255.145 23.7689ZM263.9 35.4507V26.7234H267.519C268.504 26.7234 269.285 26.9336 269.86 27.3541C270.436 27.7708 270.724 28.337 270.724 29.053C270.724 29.5643 270.561 29.9696 270.235 30.2689C269.91 30.5681 269.478 30.7689 268.94 30.8711C269.33 30.9166 269.688 31.034 270.014 31.2234C270.34 31.409 270.601 31.659 270.798 31.9734C270.999 32.2878 271.099 32.6628 271.099 33.0984C271.099 33.5605 270.98 33.9696 270.741 34.3257C270.502 34.678 270.156 34.9545 269.701 35.1552C269.251 35.3522 268.707 35.4507 268.071 35.4507H263.9ZM265.497 34.0302H268.071C268.491 34.0302 268.821 33.9299 269.059 33.7291C269.298 33.5283 269.417 33.2556 269.417 32.9109C269.417 32.5056 269.298 32.1874 269.059 31.9564C268.821 31.7215 268.491 31.6041 268.071 31.6041H265.497V34.0302ZM265.497 30.3598H267.537C267.855 30.3598 268.127 30.3143 268.355 30.2234C268.586 30.1325 268.762 30.0037 268.883 29.837C269.008 29.6666 269.071 29.4658 269.071 29.2348C269.071 28.8977 268.932 28.6344 268.656 28.445C268.379 28.2556 268.001 28.1609 267.519 28.1609H265.497V30.3598ZM276.479 35.6268C275.661 35.6268 274.947 35.4393 274.337 35.0643C273.727 34.6893 273.253 34.1647 272.916 33.4905C272.579 32.8162 272.411 32.0283 272.411 31.1268C272.411 30.2215 272.579 29.4298 272.916 28.7518C273.253 28.0738 273.727 27.5473 274.337 27.1723C274.947 26.7973 275.661 26.6098 276.479 26.6098C277.297 26.6098 278.011 26.7973 278.621 27.1723C279.231 27.5473 279.704 28.0738 280.041 28.7518C280.378 29.4298 280.547 30.2215 280.547 31.1268C280.547 32.0283 280.378 32.8162 280.041 33.4905C279.704 34.1647 279.231 34.6893 278.621 35.0643C278.011 35.4393 277.297 35.6268 276.479 35.6268ZM276.484 34.2007C277.015 34.2007 277.454 34.0605 277.803 33.7802C278.151 33.4999 278.409 33.1268 278.575 32.6609C278.746 32.195 278.831 31.6817 278.831 31.1211C278.831 30.5643 278.746 30.053 278.575 29.587C278.409 29.1174 278.151 28.7405 277.803 28.4564C277.454 28.1723 277.015 28.0302 276.484 28.0302C275.95 28.0302 275.507 28.1723 275.155 28.4564C274.806 28.7405 274.547 29.1174 274.377 29.587C274.21 30.053 274.127 30.5643 274.127 31.1211C274.127 31.6817 274.21 32.195 274.377 32.6609C274.547 33.1268 274.806 33.4999 275.155 33.7802C275.507 34.0605 275.95 34.2007 276.484 34.2007ZM282.283 35.4507V26.7234H289.403V35.4507H287.738V28.1893H283.937V35.4507H282.283ZM291.514 38.7234V26.7234H293.173V28.1382H293.315C293.414 27.9564 293.556 27.7461 293.741 27.5075C293.927 27.2689 294.184 27.0605 294.514 26.8825C294.843 26.7007 295.279 26.6098 295.821 26.6098C296.525 26.6098 297.154 26.7878 297.707 27.1439C298.26 27.4999 298.694 28.0132 299.008 28.6836C299.326 29.3541 299.486 30.1609 299.486 31.1041C299.486 32.0473 299.328 32.856 299.014 33.5302C298.7 34.2007 298.268 34.7177 297.718 35.0814C297.169 35.4412 296.542 35.6211 295.838 35.6211C295.307 35.6211 294.874 35.5321 294.537 35.3541C294.203 35.1761 293.942 34.9677 293.753 34.7291C293.563 34.4905 293.417 34.2783 293.315 34.0927H293.213V38.7234H291.514ZM293.179 31.087C293.179 31.7007 293.268 32.2386 293.446 32.7007C293.624 33.1628 293.881 33.5245 294.218 33.7859C294.556 34.0435 294.968 34.1723 295.457 34.1723C295.965 34.1723 296.389 34.0378 296.73 33.7689C297.071 33.4961 297.328 33.1268 297.503 32.6609C297.681 32.195 297.77 31.6704 297.77 31.087C297.77 30.5113 297.682 29.9942 297.508 29.5359C297.338 29.0776 297.08 28.7158 296.736 28.4507C296.395 28.1855 295.968 28.053 295.457 28.053C294.965 28.053 294.548 28.1799 294.207 28.4336C293.87 28.6874 293.614 29.0416 293.44 29.4961C293.266 29.9507 293.179 30.481 293.179 31.087ZM304.905 35.6268C304.087 35.6268 303.373 35.4393 302.763 35.0643C302.153 34.6893 301.68 34.1647 301.343 33.4905C301.005 32.8162 300.837 32.0283 300.837 31.1268C300.837 30.2215 301.005 29.4298 301.343 28.7518C301.68 28.0738 302.153 27.5473 302.763 27.1723C303.373 26.7973 304.087 26.6098 304.905 26.6098C305.723 26.6098 306.437 26.7973 307.047 27.1723C307.657 27.5473 308.13 28.0738 308.468 28.7518C308.805 29.4298 308.973 30.2215 308.973 31.1268C308.973 32.0283 308.805 32.8162 308.468 33.4905C308.13 34.1647 307.657 34.6893 307.047 35.0643C306.437 35.4393 305.723 35.6268 304.905 35.6268ZM304.911 34.2007C305.441 34.2007 305.88 34.0605 306.229 33.7802C306.577 33.4999 306.835 33.1268 307.002 32.6609C307.172 32.195 307.257 31.6817 307.257 31.1211C307.257 30.5643 307.172 30.053 307.002 29.587C306.835 29.1174 306.577 28.7405 306.229 28.4564C305.88 28.1723 305.441 28.0302 304.911 28.0302C304.377 28.0302 303.933 28.1723 303.581 28.4564C303.233 28.7405 302.973 29.1174 302.803 29.587C302.636 30.053 302.553 30.5643 302.553 31.1211C302.553 31.6817 302.636 32.195 302.803 32.6609C302.973 33.1268 303.233 33.4999 303.581 33.7802C303.933 34.0605 304.377 34.2007 304.911 34.2007ZM314.386 35.6268C313.541 35.6268 312.814 35.4355 312.204 35.053C311.598 34.6666 311.132 34.1344 310.806 33.4564C310.48 32.7783 310.318 32.0018 310.318 31.1268C310.318 30.2405 310.484 29.4583 310.818 28.7802C311.151 28.0984 311.621 27.5662 312.227 27.1836C312.833 26.8011 313.547 26.6098 314.369 26.6098C315.032 26.6098 315.622 26.7329 316.141 26.9791C316.66 27.2215 317.079 27.5624 317.397 28.0018C317.719 28.4412 317.91 28.9545 317.971 29.5416H316.318C316.227 29.1325 316.018 28.7802 315.693 28.4848C315.371 28.1893 314.939 28.0416 314.397 28.0416C313.924 28.0416 313.509 28.1666 313.153 28.4166C312.8 28.6628 312.526 29.0151 312.329 29.4734C312.132 29.928 312.033 30.4658 312.033 31.087C312.033 31.7234 312.13 32.2727 312.323 32.7348C312.516 33.1969 312.789 33.5549 313.141 33.8086C313.497 34.0624 313.916 34.1893 314.397 34.1893C314.719 34.1893 315.011 34.1306 315.272 34.0132C315.537 33.892 315.759 33.7196 315.937 33.4961C316.119 33.2727 316.246 33.0037 316.318 32.6893H317.971C317.91 33.2537 317.727 33.7575 317.42 34.2007C317.113 34.6439 316.702 34.9924 316.187 35.2461C315.675 35.4999 315.075 35.6268 314.386 35.6268ZM324.821 35.5586C324.511 35.5586 324.244 35.4488 324.02 35.2291C323.797 35.0056 323.685 34.7367 323.685 34.4223C323.685 34.1117 323.797 33.8465 324.02 33.6268C324.244 33.4033 324.511 33.2916 324.821 33.2916C325.132 33.2916 325.399 33.4033 325.622 33.6268C325.846 33.8465 325.958 34.1117 325.958 34.4223C325.958 34.6306 325.905 34.8219 325.799 34.9961C325.696 35.1666 325.56 35.303 325.39 35.4052C325.219 35.5075 325.03 35.5586 324.821 35.5586ZM329.193 35.5586C328.882 35.5586 328.615 35.4488 328.391 35.2291C328.168 35.0056 328.056 34.7367 328.056 34.4223C328.056 34.1117 328.168 33.8465 328.391 33.6268C328.615 33.4033 328.882 33.2916 329.193 33.2916C329.503 33.2916 329.77 33.4033 329.994 33.6268C330.217 33.8465 330.329 34.1117 330.329 34.4223C330.329 34.6306 330.276 34.8219 330.17 34.9961C330.068 35.1666 329.931 35.303 329.761 35.4052C329.59 35.5075 329.401 35.5586 329.193 35.5586ZM333.564 35.5586C333.253 35.5586 332.986 35.4488 332.763 35.2291C332.539 35.0056 332.427 34.7367 332.427 34.4223C332.427 34.1117 332.539 33.8465 332.763 33.6268C332.986 33.4033 333.253 33.2916 333.564 33.2916C333.874 33.2916 334.142 33.4033 334.365 33.6268C334.588 33.8465 334.7 34.1117 334.7 34.4223C334.7 34.6306 334.647 34.8219 334.541 34.9961C334.439 35.1666 334.302 35.303 334.132 35.4052C333.962 35.5075 333.772 35.5586 333.564 35.5586Z" fill="white"/>
</svg>
