<svg width="44" height="35" viewBox="0 0 44 35" fill="none" xmlns="http://www.w3.org/2000/svg">
<path d="M24.4724 18.5426C24.4724 18.5426 24.4009 18.5426 24.4724 18.5426C21.7544 18.5426 19.6086 20.6884 19.6086 23.3349C19.6086 24.6223 20.1093 25.8383 20.9676 26.7681C21.8975 27.698 23.1134 28.1987 24.4009 28.1987H24.4724C25.7599 28.1987 26.9759 27.698 27.8342 26.8397C28.764 25.9098 29.2647 24.6939 29.2647 23.4064C29.2647 20.7599 27.1189 18.6141 24.4724 18.5426ZM26.5467 25.5522C25.9745 26.1244 25.1877 26.4105 24.4009 26.4105C23.6141 26.4105 22.8273 26.0529 22.2551 25.4807C21.6829 24.9085 21.3968 24.1217 21.3968 23.3349C21.3968 22.5481 21.7544 21.7613 22.3266 21.1891C22.8989 20.6169 23.6856 20.3308 24.4724 20.3308C25.2592 20.3308 26.046 20.6884 26.6182 21.2606C27.1904 21.8328 27.4766 22.6196 27.4766 23.4064C27.4766 24.1932 27.1189 24.98 26.5467 25.5522Z" fill="#191C1F"/>
<path d="M43.8565 15.1094C43.4988 13.5358 42.1398 12.5344 40.4232 12.4629C36.7038 12.4629 33.6282 12.3914 30.4095 12.3914L24.6874 12.3198L19.5375 12.1768C16.1042 12.1053 12.8855 12.0337 8.87962 11.8907H8.8081C7.09146 11.8907 5.80399 12.8205 5.37483 14.3941C5.3033 14.7517 5.23177 15.0378 5.23177 15.324C5.08872 19.9732 5.0172 24.5513 4.87414 29.129L4.80262 30.7741C4.73109 32.8483 6.16162 34.2789 8.16436 34.3504L24.8304 34.708H26.261L40.3521 34.8511C41.3534 34.8511 42.2118 34.4935 42.8555 33.9212C43.4992 33.2775 43.8569 32.4192 43.8569 31.4178V30.7741C43.9284 25.9103 43.9284 20.9745 43.9999 16.1107C43.9999 15.7531 43.9284 15.467 43.8569 15.1094H43.8565ZM42.1398 15.9677C42.0683 20.903 42.0683 25.8383 41.9968 30.631V31.2748C41.9968 31.7754 41.8537 32.2046 41.5676 32.4907C41.2815 32.7768 40.8524 32.9199 40.3517 32.9199L26.0464 32.7768H25.8318L8.30741 32.3477C7.23452 32.3477 6.6623 31.6324 6.6623 30.631L6.73383 28.9859C6.80536 24.4797 6.94841 19.8305 7.09146 15.2528C7.09146 15.1098 7.09146 14.8952 7.16299 14.7522C7.44909 13.6793 8.45046 13.5362 8.87962 13.5362C12.8851 13.6077 16.0323 13.6793 19.5375 13.8223L24.6874 13.9654L30.481 14.0369C33.6997 14.0369 36.7753 14.1084 40.4947 14.1084C40.9954 14.1084 41.9253 14.323 42.2114 15.3959C42.1398 15.682 42.2114 15.825 42.1398 15.9681V15.9677Z" fill="black"/>
<path d="M6.80589 2.3776C11.6697 3.37897 15.3891 4.09424 19.8237 5.02408L22.3271 5.52477L26.4757 6.31156C30.2666 7.02682 33.6283 7.59903 37.9199 8.38583C38.4206 8.45735 39.3504 8.81498 39.4219 9.88788V9.95941V10.0309C39.4219 10.5316 39.8511 10.8893 40.3518 10.8893C40.8525 10.8893 41.2101 10.4601 41.2101 9.95941V9.81635C41.1386 8.17125 39.9942 6.9553 38.2775 6.66919C33.9859 5.8824 30.6242 5.23866 26.8333 4.59492L20.2529 3.30745C15.7467 2.3776 12.0988 1.66234 7.23505 0.660969C5.51841 0.303337 4.01636 1.0186 3.37262 2.52066C3.22957 2.87829 3.15804 3.16439 3.08651 3.37897C2.08514 8.17125 1.1553 13.0346 0.225456 17.8273L0.0108765 18.3995C-0.0606499 18.9002 0.225456 19.3294 0.726141 19.4724H0.869194C1.29835 19.4724 1.65598 19.1863 1.72751 18.7572L1.87056 18.1134C2.80041 13.3927 3.80178 8.52888 4.80315 3.7362C4.80315 3.52162 4.80315 3.37857 4.87467 3.23551C5.37536 2.23414 6.3052 2.30567 6.80589 2.3772V2.3776Z" fill="black"/>
</svg>
