<svg width="33" height="34" viewBox="0 0 33 34" fill="none" xmlns="http://www.w3.org/2000/svg">
<path d="M24.3122 17.8741C20.482 17.8741 17.364 20.9921 17.364 24.8223C17.364 28.6525 20.482 31.7705 24.3122 31.7705C28.1424 31.7705 31.2605 28.6525 31.2605 24.8223C31.2605 20.9921 28.1424 17.8741 24.3122 17.8741ZM24.3122 30.0334C21.4373 30.0334 19.101 27.697 19.101 24.8222C19.101 21.9473 21.4373 19.6109 24.3122 19.6109C27.1871 19.6109 29.5235 21.9473 29.5235 24.8222C29.5235 27.697 27.1871 30.0334 24.3122 30.0334Z" fill="black"/>
<path d="M8.67796 16.1365C12.5081 16.1365 15.6262 13.0185 15.6262 9.18827C15.6262 5.35809 12.5081 2.24005 8.67796 2.24005C4.84777 2.24005 1.72974 5.35809 1.72974 9.18827C1.72974 13.0185 4.84777 16.1365 8.67796 16.1365ZM8.67796 3.97718C11.5529 3.97718 13.8892 6.31353 13.8892 9.18842C13.8892 12.0633 11.5529 14.3997 8.67796 14.3997C5.80307 14.3997 3.46672 12.0633 3.46672 9.18842C3.46672 6.31353 5.80307 3.97718 8.67796 3.97718Z" fill="#191C1F"/>
<path d="M32.7461 0.754825C32.4073 0.416035 31.8603 0.416035 31.5215 0.754825L0.254093 32.0223C-0.0846976 32.3611 -0.0846976 32.908 0.254093 33.2468C0.418976 33.4207 0.63592 33.5077 0.861879 33.5077C1.08784 33.5077 1.30478 33.4207 1.47868 33.2559L32.7461 1.98841C33.0846 1.64962 33.0846 1.09356 32.7461 0.754832L32.7461 0.754825Z" fill="black"/>
</svg>
