<svg width="20" height="20" viewBox="0 0 20 20" fill="none" xmlns="http://www.w3.org/2000/svg">
<path d="M18.6869 17.1839L16.1466 14.6542C17.3077 13.1749 17.9377 11.3482 17.9354 9.4677C17.9354 7.79295 17.4388 6.15581 16.5083 4.7633C15.5779 3.3708 14.2554 2.28547 12.7081 1.64457C11.1609 1.00367 9.45831 0.83598 7.81574 1.16271C6.17316 1.48944 4.66436 2.29591 3.48014 3.48014C2.29591 4.66436 1.48944 6.17316 1.16271 7.81574C0.83598 9.45831 1.00367 11.1609 1.64457 12.7081C2.28547 14.2554 3.3708 15.5779 4.7633 16.5083C6.15581 17.4388 7.79295 17.9354 9.4677 17.9354C11.3482 17.9377 13.1749 17.3077 14.6542 16.1466L17.1839 18.6869C17.2823 18.7861 17.3994 18.8649 17.5283 18.9186C17.6573 18.9723 17.7957 19 17.9354 19C18.0751 19 18.2135 18.9723 18.3425 18.9186C18.4714 18.8649 18.5885 18.7861 18.6869 18.6869C18.7861 18.5885 18.8649 18.4714 18.9186 18.3425C18.9723 18.2135 19 18.0751 19 17.9354C19 17.7957 18.9723 17.6573 18.9186 17.5283C18.8649 17.3994 18.7861 17.2823 18.6869 17.1839ZM3.11693 9.4677C3.11693 8.21164 3.48939 6.98378 4.18723 5.9394C4.88506 4.89502 5.87691 4.08103 7.03737 3.60035C8.19782 3.11968 9.47475 2.99391 10.7067 3.23896C11.9386 3.484 13.0702 4.08886 13.9584 4.97703C14.8465 5.8652 15.4514 6.9968 15.6964 8.22873C15.9415 9.46066 15.8157 10.7376 15.3351 11.898C14.8544 13.0585 14.0404 14.0503 12.996 14.7482C11.9516 15.446 10.7238 15.8185 9.4677 15.8185C7.78337 15.8185 6.16803 15.1494 4.97703 13.9584C3.78603 12.7674 3.11693 11.152 3.11693 9.4677Z" fill="#191C1F" stroke="white" stroke-width="0.6"/>
</svg>
