<svg width="32" height="37" viewBox="0 0 32 37" fill="none" xmlns="http://www.w3.org/2000/svg">
<path d="M31.3129 2.81111L18.5775 0.257282C16.8769 -0.0857608 15.1236 -0.0857608 13.4228 0.257282L0.687499 2.81111C0.281227 2.89267 -0.00819851 3.24781 0.000177182 3.65534V14.7575C0.00826681 17.4058 0.55744 20.0257 1.6154 22.4618C2.67361 24.8976 4.21903 27.0998 6.15975 28.9374L6.20708 28.9795L15.4547 36.4892C15.7726 36.7475 16.2322 36.7475 16.5501 36.4892L25.7934 28.9795L25.8407 28.9374C27.7834 27.0979 29.33 24.893 30.3881 22.4542C31.4463 20.0152 31.9943 17.3924 32 14.741V3.63887C32 3.23753 31.7129 2.89148 31.3129 2.81111ZM30.2819 14.7406C30.2765 17.159 29.7773 19.5517 28.8138 21.7772C27.8502 24.0024 26.4418 26.015 24.6723 27.6959L16.0002 34.7329L7.32813 27.6959C5.55863 26.0151 4.15014 24.0025 3.18659 21.7772C2.22304 19.5517 1.72389 17.159 1.71848 14.7406V4.32657L13.7666 1.91201C15.2404 1.6146 16.76 1.6146 18.2336 1.91201L30.2817 4.33096L30.2819 14.7406Z" fill="black"/>
<path d="M20.9487 12.0052L13.9346 18.886L11.0524 16.0534C10.7168 15.7237 10.1724 15.7237 9.83688 16.0534C9.50131 16.3835 9.50131 16.9182 9.83688 17.248L13.3246 20.6758C13.4855 20.8345 13.7042 20.9235 13.9322 20.9235C14.1602 20.9235 14.379 20.8345 14.5402 20.6758L22.1642 13.1998C22.4997 12.87 22.4997 12.335 22.1642 12.0052C21.8286 11.6754 21.2842 11.6754 20.9487 12.0052Z" fill="#191C1F"/>
</svg>
