<svg width="23" height="24" viewBox="0 0 23 24" fill="none" xmlns="http://www.w3.org/2000/svg">
<path d="M11.448 23.6174C17.7721 23.6174 22.8961 18.4934 22.8961 12.1694C22.8961 5.84526 17.7721 0.721313 11.448 0.721313C5.12395 0.721313 0 5.84526 0 12.1694C0 18.4934 5.12395 23.6174 11.448 23.6174ZM5.23843 11.9213L16.2762 7.6655C16.7885 7.48043 17.236 7.79048 17.07 8.56513L17.0709 8.56417L15.1915 17.4183C15.0523 18.046 14.6792 18.1987 14.1574 17.9029L11.2954 15.7936L9.91495 17.1235C9.76231 17.2761 9.63352 17.4049 9.33778 17.4049L9.54099 14.4923L14.8452 9.70039C15.0761 9.49719 14.7937 9.38271 14.4894 9.58496L7.93444 13.712L5.10869 12.8305C4.49526 12.6359 4.48191 12.2171 5.23843 11.9213Z" fill="white"/>
</svg>
