<svg width="20" height="20" viewBox="0 0 20 20" fill="none" xmlns="http://www.w3.org/2000/svg">
<circle cx="9.2005" cy="10.0496" r="9.2005" fill="white"/>
<path d="M9.62986 19.3298C14.9496 19.3298 19.2597 15.0196 19.2597 9.69993C19.2597 4.38023 14.9496 0.0700684 9.62986 0.0700684C4.31016 0.0700684 0 4.38023 0 9.69993C0 15.0196 4.31016 19.3298 9.62986 19.3298ZM4.40646 9.49128L13.6913 5.91138C14.1222 5.7557 14.4986 6.01651 14.3589 6.66813L14.3597 6.66732L12.7788 14.1152C12.6617 14.6433 12.3479 14.7717 11.9089 14.5229L9.50146 12.7486L8.34026 13.8672C8.21186 13.9956 8.10353 14.104 7.85476 14.104L8.02569 11.654L12.4875 7.62309C12.6817 7.45216 12.4442 7.35586 12.1882 7.52599L6.6743 10.9976L4.29732 10.2561C3.78132 10.0923 3.77009 9.74005 4.40646 9.49128Z" fill="black"/>
</svg>
