<svg width="20" height="22" viewBox="0 0 20 22" fill="none" xmlns="http://www.w3.org/2000/svg">
<ellipse cx="9.95818" cy="8.75282" rx="8.28045" ry="7.97376" fill="white"/>
<path d="M11.9754 0H7.69546C3.57602 0 0.205566 3.33536 0.205566 7.4119V10.5884C0.205566 13.4473 1.89079 16.0679 4.4855 17.2856V20.8327C4.4855 21.1504 4.88675 21.3092 5.10074 21.071L8.2037 18.0003H11.9754C16.0948 18.0003 19.4653 14.665 19.4653 10.5884V7.4119C19.4653 3.33536 16.0948 0 11.9754 0ZM14.7841 13.8973L13.6874 14.9562C12.5371 16.0679 9.56793 14.7973 6.94647 12.1502C4.32501 9.50312 3.17477 6.53836 4.27151 5.42657L5.34149 4.36773C5.74274 3.97066 6.41148 3.99713 6.86622 4.3942L8.4177 5.98246C8.97944 6.53836 8.73869 7.49132 8.01645 7.70308C7.50821 7.86191 7.16046 8.4178 7.32096 8.92075C7.58846 10.0855 9.08644 11.5679 10.2099 11.859C10.7182 11.9649 11.2799 11.7002 11.4672 11.1973C11.7079 10.4825 12.6709 10.2708 13.2059 10.8267L14.7574 12.4149C15.1853 12.7855 15.1853 13.4473 14.7841 13.8973ZM10.7984 5.02951C10.6914 5.02951 10.5844 5.02951 10.4774 5.05598C10.2902 5.08245 10.1029 4.92362 10.0762 4.73832C10.0494 4.55303 10.2099 4.36773 10.3972 4.34126C10.5309 4.31479 10.6647 4.31479 10.7984 4.31479C12.7511 4.31479 14.3561 5.90305 14.3561 7.83544C14.3561 7.96779 14.3561 8.10015 14.3294 8.23251C14.3026 8.4178 14.1154 8.57663 13.9281 8.55016C13.7409 8.52369 13.5804 8.33839 13.6071 8.15309C13.6071 8.04721 13.6339 7.94132 13.6339 7.83544C13.6606 6.30012 12.3766 5.02951 10.7984 5.02951ZM12.9384 7.86191C12.9384 8.04721 12.7779 8.20604 12.5906 8.20604C12.4034 8.20604 12.2429 8.04721 12.2429 7.86191C12.2429 7.09425 11.6009 6.45894 10.8252 6.45894C10.6379 6.45894 10.4774 6.30012 10.4774 6.11482C10.4774 5.92952 10.6379 5.7707 10.8252 5.7707C11.9754 5.74422 12.9384 6.69718 12.9384 7.86191ZM15.6668 9.00017C15.6133 9.18546 15.4261 9.31782 15.2121 9.26488C15.0248 9.21194 14.9178 9.02664 14.9713 8.84134C15.0516 8.52369 15.0783 8.20604 15.0783 7.86191C15.0783 5.53246 13.1524 3.62654 10.7984 3.62654C10.6914 3.62654 10.5844 3.62654 10.4774 3.62654C10.2902 3.62654 10.1029 3.49418 10.1029 3.30889C10.1029 3.12359 10.2367 2.93829 10.4239 2.93829C10.5577 2.93829 10.6914 2.91182 10.7984 2.91182C13.5536 2.91182 15.8006 5.13539 15.8006 7.86191C15.8006 8.23251 15.7471 8.62957 15.6668 9.00017Z" fill="black"/>
</svg>
