<svg width="24" height="26" viewBox="0 0 24 26" fill="none" xmlns="http://www.w3.org/2000/svg">
<path d="M14.7843 0.449219H9.69627C4.79905 0.449219 0.792236 4.41431 0.792236 9.26054V13.0368C0.792236 16.4355 2.79564 19.5509 5.88025 20.9985V25.2153C5.88025 25.5929 6.35725 25.7818 6.61165 25.4985L10.3005 21.8481H14.7843C19.6815 21.8481 23.6883 17.883 23.6883 13.0368V9.26054C23.6883 4.41431 19.6815 0.449219 14.7843 0.449219ZM18.1233 16.9704L16.8195 18.2292C15.4521 19.5509 11.9223 18.0404 8.80586 14.8935C5.68945 11.7466 4.32205 8.22206 5.62585 6.90036L6.89786 5.6416C7.37486 5.16957 8.16986 5.20104 8.71046 5.67307L10.5549 7.56121C11.2227 8.22206 10.9365 9.35494 10.0779 9.60669C9.47366 9.79551 9.06026 10.4564 9.25106 11.0543C9.56906 12.4389 11.3499 14.2012 12.6855 14.5473C13.2897 14.6732 13.9575 14.3585 14.1801 13.7606C14.4663 12.9109 15.6111 12.6592 16.2471 13.32L18.0915 15.2082C18.6003 15.6487 18.6003 16.4355 18.1233 16.9704ZM13.3851 6.42833C13.2579 6.42833 13.1307 6.42833 13.0035 6.4598C12.7809 6.49126 12.5583 6.30245 12.5265 6.08217C12.4947 5.86188 12.6855 5.6416 12.9081 5.61013C13.0671 5.57866 13.2261 5.57866 13.3851 5.57866C15.7065 5.57866 17.6145 7.4668 17.6145 9.76404C17.6145 9.92138 17.6145 10.0787 17.5827 10.2361C17.5509 10.4564 17.3283 10.6452 17.1057 10.6137C16.8831 10.5822 16.6923 10.3619 16.7241 10.1417C16.7241 10.0158 16.7559 9.88991 16.7559 9.76404C16.7877 7.93884 15.2613 6.42833 13.3851 6.42833ZM15.9291 9.79551C15.9291 10.0158 15.7383 10.2046 15.5157 10.2046C15.2931 10.2046 15.1023 10.0158 15.1023 9.79551C15.1023 8.88291 14.3391 8.12765 13.4169 8.12765C13.1943 8.12765 13.0035 7.93884 13.0035 7.71855C13.0035 7.49827 13.1943 7.30946 13.4169 7.30946C14.7843 7.27799 15.9291 8.41087 15.9291 9.79551ZM19.1727 11.1487C19.1091 11.369 18.8865 11.5263 18.6321 11.4634C18.4095 11.4004 18.2823 11.1801 18.3459 10.9599C18.4413 10.5822 18.4731 10.2046 18.4731 9.79551C18.4731 7.02624 16.1835 4.76047 13.3851 4.76047C13.2579 4.76047 13.1307 4.76047 13.0035 4.76047C12.7809 4.76047 12.5583 4.60313 12.5583 4.38284C12.5583 4.16256 12.7173 3.94228 12.9399 3.94228C13.0989 3.94228 13.2579 3.91081 13.3851 3.91081C16.6605 3.91081 19.3317 6.5542 19.3317 9.79551C19.3317 10.2361 19.2681 10.7081 19.1727 11.1487Z" fill="white"/>
</svg>
