<svg width="24" height="24" viewBox="0 0 24 24" fill="none" xmlns="http://www.w3.org/2000/svg">
<path d="M12.3442 0.721313C6.01911 0.721313 0.896118 5.84431 0.896118 12.1694C0.896118 14.6879 1.69748 17.0061 3.07125 18.8951L1.49714 23.045L6.04774 21.7285C7.8508 22.9305 10.0259 23.6174 12.3442 23.6174C18.6692 23.6174 23.7922 18.4944 23.7922 12.1694C23.7922 5.84431 18.6692 0.721313 12.3442 0.721313ZM18.4402 16.9203L17.2096 18.1223C15.9217 19.4102 12.5159 18.0079 9.51077 14.9741C6.50566 11.969 5.16051 8.56322 6.36256 7.30394L7.59322 6.07327C8.05114 5.61535 8.82388 5.61535 9.31043 6.07327L11.1135 7.87634C11.7431 8.50598 11.4856 9.59354 10.6556 9.85112C10.0832 10.0515 9.68249 10.6811 9.88283 11.2535C10.1976 12.5987 11.9435 14.2586 13.2314 14.5734C13.8038 14.7165 14.462 14.3731 14.6338 13.8007C14.8913 12.9707 15.9789 12.7131 16.6086 13.3428L18.4116 15.1458C18.8695 15.6324 18.8695 16.4051 18.4402 16.9203Z" fill="white"/>
</svg>
